<mxfile host="Electron" agent="Mozilla/5.0 (Windows NT 10.0; Win64; x64) AppleWebKit/537.36 (KHTML, like Gecko) draw.io/24.7.8 Chrome/128.0.6613.36 Electron/32.0.1 Safari/537.36" version="24.7.8">
  <diagram name="Page-1" id="u1nkJ9uYOrJ7bxc7M2nU">
    <mxGraphModel dx="2074" dy="2296" grid="1" gridSize="10" guides="1" tooltips="1" connect="1" arrows="1" fold="1" page="1" pageScale="1" pageWidth="850" pageHeight="1100" math="0" shadow="0">
      <root>
        <mxCell id="0" />
        <mxCell id="1" parent="0" />
        <mxCell id="frRfNmw6XWPK0pzjb5Dw-34" value="" style="whiteSpace=wrap;html=1;aspect=fixed;fillColor=#ffffff;fillStyle=auto;strokeColor=#FFFFFF;gradientColor=#ffffff;" parent="1" vertex="1">
          <mxGeometry x="10" y="-30" width="850" height="850" as="geometry" />
        </mxCell>
        <mxCell id="frRfNmw6XWPK0pzjb5Dw-1" value="&#xa;&lt;span style=&quot;color: rgb(224, 221, 217); font-family: ui-monospace, SFMono-Regular, &amp;quot;SF Mono&amp;quot;, Menlo, Consolas, &amp;quot;Liberation Mono&amp;quot;, monospace; font-size: 14px; font-style: normal; font-variant-ligatures: normal; font-variant-caps: normal; font-weight: 600; letter-spacing: normal; orphans: 2; text-align: start; text-indent: 0px; text-transform: none; widows: 2; word-spacing: 0px; -webkit-text-stroke-width: 0px; white-space: pre-wrap; background-color: rgb(24, 26, 27); text-decoration-thickness: initial; text-decoration-style: initial; text-decoration-color: initial; display: inline !important; float: none;&quot;&gt;FFFFFF&lt;/span&gt;&#xa;&#xa;" style="whiteSpace=wrap;html=1;aspect=fixed;fillColor=#a5d7e9;fontColor=#ffffff;strokeColor=#006EAF;direction=south;" parent="1" vertex="1">
          <mxGeometry x="100" y="60" width="640" height="640" as="geometry" />
        </mxCell>
        <mxCell id="frRfNmw6XWPK0pzjb5Dw-2" value="" style="whiteSpace=wrap;html=1;aspect=fixed;fillColor=#E0F4F3;strokeColor=#00F7FF;" parent="1" vertex="1">
          <mxGeometry x="190" y="150" width="450" height="450" as="geometry" />
        </mxCell>
        <mxCell id="frRfNmw6XWPK0pzjb5Dw-3" value="" style="image;aspect=fixed;html=1;points=[];align=center;fontSize=12;image=img/lib/azure2/other/Container_App_Environments.svg;" parent="1" vertex="1">
          <mxGeometry x="200" y="162" width="68" height="68" as="geometry" />
        </mxCell>
        <mxCell id="frRfNmw6XWPK0pzjb5Dw-4" value="" style="image;aspect=fixed;html=1;points=[];align=center;fontSize=12;image=img/lib/azure2/other/Worker_Container_App.svg;" parent="1" vertex="1">
          <mxGeometry x="290" y="265.63" width="68" height="66" as="geometry" />
        </mxCell>
        <mxCell id="frRfNmw6XWPK0pzjb5Dw-5" value="" style="image;aspect=fixed;html=1;points=[];align=center;fontSize=12;image=img/lib/azure2/other/Worker_Container_App.svg;" parent="1" vertex="1">
          <mxGeometry x="460" y="430" width="68" height="66" as="geometry" />
        </mxCell>
        <mxCell id="frRfNmw6XWPK0pzjb5Dw-6" value="" style="image;aspect=fixed;html=1;points=[];align=center;fontSize=12;image=img/lib/azure2/other/Worker_Container_App.svg;" parent="1" vertex="1">
          <mxGeometry x="450" y="218" width="68" height="66" as="geometry" />
        </mxCell>
        <mxCell id="frRfNmw6XWPK0pzjb5Dw-7" value="" style="image;aspect=fixed;html=1;points=[];align=center;fontSize=12;image=img/lib/azure2/other/Worker_Container_App.svg;" parent="1" vertex="1">
          <mxGeometry x="460" y="320" width="68" height="66" as="geometry" />
        </mxCell>
        <mxCell id="frRfNmw6XWPK0pzjb5Dw-8" value="" style="image;aspect=fixed;html=1;points=[];align=center;fontSize=12;image=img/lib/azure2/other/Worker_Container_App.svg;" parent="1" vertex="1">
          <mxGeometry x="290" y="400" width="68" height="66" as="geometry" />
        </mxCell>
        <mxCell id="frRfNmw6XWPK0pzjb5Dw-9" value="" style="image;aspect=fixed;html=1;points=[];align=center;fontSize=12;image=img/lib/azure2/identity/Users.svg;" parent="1" vertex="1">
          <mxGeometry x="30" y="182.37" width="60" height="65.63" as="geometry" />
        </mxCell>
        <mxCell id="frRfNmw6XWPK0pzjb5Dw-13" value="" style="verticalLabelPosition=bottom;html=1;verticalAlign=top;align=center;strokeColor=none;fillColor=#00BEF2;shape=mxgraph.azure.github_code;pointerEvents=1;" parent="1" vertex="1">
          <mxGeometry x="780" y="150" width="60" height="60" as="geometry" />
        </mxCell>
        <mxCell id="frRfNmw6XWPK0pzjb5Dw-21" value="" style="image;aspect=fixed;html=1;points=[];align=center;fontSize=12;image=img/lib/azure2/networking/Virtual_Networks.svg;" parent="1" vertex="1">
          <mxGeometry x="660" y="620" width="67" height="40" as="geometry" />
        </mxCell>
        <mxCell id="frRfNmw6XWPK0pzjb5Dw-22" value="" style="image;aspect=fixed;html=1;points=[];align=center;fontSize=12;image=img/lib/azure2/databases/Azure_Database_MySQL_Server.svg;" parent="1" vertex="1">
          <mxGeometry x="786" y="322" width="48" height="64" as="geometry" />
        </mxCell>
        <mxCell id="frRfNmw6XWPK0pzjb5Dw-28" value="" style="endArrow=classic;html=1;rounded=0;entryX=0.01;entryY=0.477;entryDx=0;entryDy=0;entryPerimeter=0;strokeWidth=3;endSize=9;strokeColor=#4a7887;" parent="1" source="frRfNmw6XWPK0pzjb5Dw-7" target="frRfNmw6XWPK0pzjb5Dw-22" edge="1">
          <mxGeometry width="50" height="50" relative="1" as="geometry">
            <mxPoint x="862.4960000000001" y="354.7539999999999" as="sourcePoint" />
            <mxPoint x="550" y="351.25" as="targetPoint" />
          </mxGeometry>
        </mxCell>
        <mxCell id="frRfNmw6XWPK0pzjb5Dw-30" value="" style="endArrow=none;html=1;rounded=0;strokeWidth=3;endSize=9;strokeColor=#4a7887;" parent="1" edge="1">
          <mxGeometry width="50" height="50" relative="1" as="geometry">
            <mxPoint x="518" y="250" as="sourcePoint" />
            <mxPoint x="530" y="460" as="targetPoint" />
            <Array as="points">
              <mxPoint x="610" y="250" />
              <mxPoint x="610" y="460" />
              <mxPoint x="530" y="460" />
            </Array>
          </mxGeometry>
        </mxCell>
        <mxCell id="frRfNmw6XWPK0pzjb5Dw-31" value="" style="endArrow=classic;html=1;rounded=0;entryX=0.142;entryY=0.642;entryDx=0;entryDy=0;entryPerimeter=0;strokeWidth=3;endSize=9;strokeColor=#4a7887;" parent="1" target="frRfNmw6XWPK0pzjb5Dw-13" edge="1">
          <mxGeometry width="50" height="50" relative="1" as="geometry">
            <mxPoint x="628" y="190" as="sourcePoint" />
            <mxPoint x="678" y="140" as="targetPoint" />
          </mxGeometry>
        </mxCell>
        <mxCell id="frRfNmw6XWPK0pzjb5Dw-10" style="edgeStyle=orthogonalEdgeStyle;rounded=0;orthogonalLoop=1;jettySize=auto;html=1;strokeColor=#4a7887;endSize=10;strokeWidth=3;" parent="1" source="frRfNmw6XWPK0pzjb5Dw-9" edge="1">
          <mxGeometry relative="1" as="geometry">
            <mxPoint x="290" y="300" as="targetPoint" />
            <Array as="points">
              <mxPoint x="60" y="300" />
            </Array>
          </mxGeometry>
        </mxCell>
        <mxCell id="frRfNmw6XWPK0pzjb5Dw-36" value="" style="endArrow=classic;html=1;rounded=0;strokeWidth=3;endSize=10;strokeColor=#4a7887;entryX=0.088;entryY=0.515;entryDx=0;entryDy=0;entryPerimeter=0;" parent="1" target="frRfNmw6XWPK0pzjb5Dw-8" edge="1">
          <mxGeometry width="50" height="50" relative="1" as="geometry">
            <mxPoint x="60" y="300" as="sourcePoint" />
            <mxPoint x="280" y="436" as="targetPoint" />
            <Array as="points">
              <mxPoint x="60" y="436" />
            </Array>
          </mxGeometry>
        </mxCell>
        <mxCell id="qmUi4MIc0_ioXcH1dGm4-1" value="Container App Environment" style="text;html=1;align=center;verticalAlign=middle;whiteSpace=wrap;rounded=0;strokeWidth=1;fontStyle=1;fontSize=11;textOpacity=70;" parent="1" vertex="1">
          <mxGeometry x="194" y="236" width="80" height="44" as="geometry" />
        </mxCell>
        <mxCell id="qmUi4MIc0_ioXcH1dGm4-2" value="VNet" style="text;html=1;align=center;verticalAlign=middle;whiteSpace=wrap;rounded=0;strokeWidth=1;fontStyle=1;fontSize=11;textOpacity=70;" parent="1" vertex="1">
          <mxGeometry x="653.5" y="670" width="80" height="30" as="geometry" />
        </mxCell>
        <mxCell id="qmUi4MIc0_ioXcH1dGm4-3" value="&lt;b&gt;Users&lt;/b&gt;" style="text;html=1;align=center;verticalAlign=middle;whiteSpace=wrap;rounded=0;" parent="1" vertex="1">
          <mxGeometry x="10" y="254" width="60" height="30" as="geometry" />
        </mxCell>
        <mxCell id="qmUi4MIc0_ioXcH1dGm4-4" value="MySQL Server" style="text;html=1;align=center;verticalAlign=middle;whiteSpace=wrap;rounded=0;strokeWidth=1;fontStyle=1;fontSize=11;textOpacity=70;" parent="1" vertex="1">
          <mxGeometry x="770" y="390" width="80" height="30" as="geometry" />
        </mxCell>
        <mxCell id="qmUi4MIc0_ioXcH1dGm4-5" value="Config Repository" style="text;html=1;align=center;verticalAlign=middle;whiteSpace=wrap;rounded=0;strokeWidth=1;fontStyle=1;fontSize=11;textOpacity=70;" parent="1" vertex="1">
          <mxGeometry x="780" y="228" width="80" height="30" as="geometry" />
        </mxCell>
        <mxCell id="qmUi4MIc0_ioXcH1dGm4-6" value="Api gateway" style="text;html=1;align=center;verticalAlign=middle;whiteSpace=wrap;rounded=0;strokeWidth=1;fontStyle=1;fontSize=11;textOpacity=70;" parent="1" vertex="1">
          <mxGeometry x="284" y="338" width="80" height="30" as="geometry" />
        </mxCell>
        <mxCell id="qmUi4MIc0_ioXcH1dGm4-7" value="Admin service" style="text;html=1;align=center;verticalAlign=middle;whiteSpace=wrap;rounded=0;strokeWidth=1;fontStyle=1;fontSize=11;textOpacity=70;" parent="1" vertex="1">
          <mxGeometry x="274" y="480" width="86" height="30" as="geometry" />
        </mxCell>
        <mxCell id="qmUi4MIc0_ioXcH1dGm4-8" value="Customers Service" style="text;html=1;align=center;verticalAlign=middle;whiteSpace=wrap;rounded=0;strokeWidth=1;fontStyle=1;fontSize=11;textOpacity=70;" parent="1" vertex="1">
          <mxGeometry x="444" y="280" width="80" height="30" as="geometry" />
        </mxCell>
        <mxCell id="qmUi4MIc0_ioXcH1dGm4-9" value="Vets Service" style="text;html=1;align=center;verticalAlign=middle;whiteSpace=wrap;rounded=0;strokeWidth=1;fontStyle=1;fontSize=11;textOpacity=70;" parent="1" vertex="1">
          <mxGeometry x="450" y="386" width="80" height="30" as="geometry" />
        </mxCell>
        <mxCell id="qmUi4MIc0_ioXcH1dGm4-10" value="Visits Service" style="text;html=1;align=center;verticalAlign=middle;whiteSpace=wrap;rounded=0;strokeWidth=1;fontStyle=1;fontSize=11;textOpacity=70;" parent="1" vertex="1">
          <mxGeometry x="450" y="496" width="80" height="30" as="geometry" />
        </mxCell>
        <mxCell id="qmUi4MIc0_ioXcH1dGm4-11" value="Config server for spring" style="text;html=1;align=center;verticalAlign=middle;whiteSpace=wrap;rounded=0;strokeWidth=1;fontStyle=1;fontSize=11;textOpacity=70;" parent="1" vertex="1">
          <mxGeometry x="560" y="218" width="80" height="30" as="geometry" />
        </mxCell>
        <mxCell id="qmUi4MIc0_ioXcH1dGm4-12" value="Eureka server for spring" style="text;html=1;align=center;verticalAlign=middle;whiteSpace=wrap;rounded=0;strokeWidth=1;fontStyle=1;fontSize=11;textOpacity=70;" parent="1" vertex="1">
          <mxGeometry x="560" y="560" width="80" height="30" as="geometry" />
        </mxCell>
        <mxCell id="amleVEFkV1cWmTi2RPjT-1" value="" style="shape=image;verticalLabelPosition=bottom;labelBackgroundColor=default;verticalAlign=top;aspect=fixed;imageAspect=0;image=data:image/png,iVBORw0KGgoAAAANSUhEUgAAAT0AAAFCCAYAAACD7wqJAAAAAXNSR0IArs4c6QAAAARnQU1BAACxjwv8YQUAAAAJcEhZcwAADsMAAA7DAcdvqGQAAGjOSURBVHhe7b1nc1xpkqX5QiOgA1oQoNZkUqVgVmZVVmXJruru6RmbnjFr251Psz9qd83W9svOju3OrE13T3VPV2VVVqUWzKTWGiS0CGgREFx//I1LBMEACRE6/DCRAQQAErhx77nH3Y+7Fz0TOIPBYCgQFMceDQaDoSBgpGcwGAoKRnoGg6GgYKRnMBgKCkZ6BoOhoGCkZzAYCgpGegaDoaBgpGcwGAoKZk42bBvPnq06/qysrriVZ8uxZ2OQ02rl2YpbWll0q/K4EYqLSlxJcakrKSp1xcUlsWc9il2RfK5Mvkbe403+GAw7hZGeQfGMP3IqQFD+bVWJC1JTcuPj2NfxeYiOz0aF1KLL825pdVE/H4C/C8KbWZp0yyvR2LPrUeTKSspdRUnIlZdWulIhuHhAiGUlla5SPg8xgqKiIvm6ciVA3i8SavSkKO8JcQZfp8/JH4NhPYz0CggBsQXvQ2rB+yi15ZUlt7gy7xaXZ4XMom51VZ5bjbqoENoSHwvx8TFktriyoN/P4+LynJDei8TG38nXzUYn9HsTwRNYmasorXLlQmwvk16xKyuucKGyGiEzVCDEVuyqy+tVGfL1kGa5ECMEGSqtdpVl1fp+hT5XGiNGT368z9+hf/R9QyHCSK9AgFoj3OQNsoKkVoXoePmXVpeE8ISglqbd1MKYG18YdHPRGSGrBTcvBDgTjbj5pRm3IOTGY/B+JgChNYbahCirhQyrXY0QYG1FWMmxvrLJNVS2KInyHAqyVEixVNWfV4gaRkOm8ryhMGGkl9cgFPUvL+HnbHTSReZH3OQCb2NuenHMTS1G5P1RJTeUGWS4IiRICMupoaGsvAUhrw91Y+FvRuDVIcTl33xOEPVG/g+CI+TluZryBiXCuopGV1Vepx/XycfhylbXUr3rORkG4O8z5D+M9PIIhJSrqytCYDOizibdzOKEqrRpITY+hvRml6bcwtKsV2zydfO8L4/k3ZTU5E++AKVHuFspyq+iVN4n/JW3qrJaVYKoxGohw5B8HCqtUYKEGPlayNSQnzDSy1GgtpYJS+WNUJNiAvm4OSGz6cVxNyFqbkJUnT7KGwTI5yHF4Ps9ya0VKfINKL4gdxeoQs3vyXMl8j7EhwqsiRFgU1WHhMetXhmW1bhyIctKIUByhoTGpgTzA0Z6OQJeJiqpSlary0p0KLi5pWk3PPvEjc0NSOg65MbmB0XJCQmuLGi4SqhKeAo58r2GNRAmB3YZXxSpVJKD9Jol/IUECYMbQ+2xHGGFEqe+FccI1JBzMNLLAUBaKDlC1HEhtZHZp/LWJwpuWKupFB0IW+ei01pJpRLr1VssWJWXOJ/C1mThOWnFKrz8gdAIb8kBEgrXigKsqWiQx7ALV7W7cGWLEGKn5gUpmBhyD0Z6WQgICoU2LSHplISqKDofsg5rAWJ8btBFJGRF5QWFBZTciijAIGQ1bA+e+CiEUCwpiSnACrXDEAaHQ62iACG/VlctZFhVWqPPV5dBklWqHA3ZDSO9LAAkR66NnBthKWoNVUfIOjzzRNTdkJIfRYnoMjaSGfmaeSU6Q+qhJFgUI78yXwjBK4gCrCuXULiq0zUKEdZqLrBaFSC+Q2wxkKghu2CklzFgCI6ptJWoWkbIyU0sjPrcnBDexPywEh5Kb0E+bySXHaBAggKsLKtSAsQbiAKsl8eGymZ5v01JkNyg5g1j3kBa6QyZh5FeRiDKTghvNjqluTgMwWMSsg7NPHLDs09F3T1V4iM3p7k4y8llJVTFxfKBkJsSYKjFtdfsdh21e11rdberrWx8Xg3GQG3El3kY6aUR5NzoVV2Q8HQ6OuFG5/rd0PRjIbtefT+wlRDiov6M6HIHWGN8Fbhc+4jx/UF2rTW73N7wCa0CUwGmOOItMN5gbUg/jPRSCNVncnh9oSEqym5ayK3PDUw9cIMzj93k4qiGs9ML3npC8cKILj+AoisXZUfej5wf9pcmeWyp7or5AVue9wnjGTSkD0Z6KQRER8fDjKi6yPyw5un6pu67p1N3VN2h+qi+GvIfDE2g4tta0+Paa3drCNwsBAj50QViqi99MNJLAdRGIn8IVwemH7r741fcndHv3eD0Iy1YGAoX5P+o7jZWtbl9jSfdybb33J6GYxLyeuOz5fxSDyO9JAMrCV0Rjyduur7Je6LoHmsF9nkbmHVFFDxQdVhaaH2j8NFc1eX2hI+57vpDrrV6l5meUwwjvR2CHBwDNZkbRzFiWMJW2sIGRNVRkcVuEhWyo6vCQllDAIjPm5/LXVV5rWup2uXaJPT1b90uHPKWF7pD8gUU6Ej3MPGH8WD8/pmAkd42AYExholpJZOLY2oifjJ52/VPPVC7CYUJbyDGdmJkZ0gMwl26OLzxGc9fs2uv2eO66g9o3q9JyI9JMPQF53LeD4sWgy9G5DphmvaJ1h9olVttP2mGkd4WgbILuieYQzc488g9jtxy/dMPtC+WMJZhABbGGrYKlA+5PQakNld1qOrbVX/Q9TQc0SJI0OaWa/tCuGboJEIUPBi/qiLhZ/v/TpVsJtr2jPS2AF48/HPj88NaoOifvifK7qEbkrsXgzmZakIBw8JYw3YBmUFq+Piqy+q1s6Orbr+GvF11B3TYQVVZnX4+V4DKG5l94m4Mf+Puj1/WCOgXB/8n/b1Qt+kmcCO9TQAS07HpouIiCxDeA/dUixS92iqmU4cl1DWyMyQLEIEPeyu1m4PWNgodu4T4sL2QE6MPmMEI2az6oBd2rOBeuDL4ieuduK2/17vdv3ZHWt5WUk+3T9FIb0P4VjH6XcnPMc6J4gS2EwoVTDrBf7cost1ydoZUAlIj5A2HWp4rvu76w6r6GHlFtTdb831cPxTzLg58LKT3mVw/jzVMP9xyzp0X4iN8LytO774SI70E8BVZP5GYF0zzdhO3RN3d1b7YuaUpU3aGjID+XlrayPN1C2F01O7TDg/UYDbm+hiUQQroQt/v3M2Rb7XIh12HzhRC3MPN57Q1L50wJ2QC0CPLLLv+6YfyQn3jvnn6L+67vo/c3bFLmruj9G6EZ8gEiDq4+X7f/0f37dPfu+tDX7i+qXvqIsjGNsaF5Xk3IKIBryrXDdHT4spcLDU0qp/nuXTClF4MnCwQGS8AhuKHkevuwfg1PcGmo+Oq+iBDgyHz8INO8fDRwkaV91DzWbcvfFJzZAw8zURVdD2Ihugz/7L3t+7WyAXtNSfcRY2ymvO9nr9ypzs+0IJGOg3ZRnoxUHllOvHTqfvuUeSGlte5GxHe6q7YLLuDGgwAmwuhLSEveb494eMa9lL4yPQQU9QdBYyvn/yzqlGqtogLfiZI+WjLW0J6P3aHW95U+0q6UPDhLcqO0IDiBC/Qhb7fu8uDn6rSw0zJTDsjPEO2Aj8ocxnJOV8a+LO8/UlzZ31TEqHITTxTg2fRUhT7EA+Qn+bAY9cRj1x3dCzhbSXsTScKlvQ48Cg47j7chb7v/9h91vuP7vbod5psXVqJxr7SYMhueBJZUTfB3bGL7qsnv3Vf9P53d2/siq4Z4HMB4aQLEBmOB9JD/FzB6tEA/EzBelKfI0/fz1eQ4W3gu+NO80gU3f3xq+q94wVgPwWHJN0nicGwc5DrK1JvX20s10e4u7/xpFpDyJulOtzl2ll+tqQ5PFQn0ROTwRNdT+wd8daVv3AHm89oLjId/bgFp/QoRrBJDLK7NvS5uypvvM+sOwgP2W2EZ8hN+LAR5USr15PJO0I+3+o5DgmNzfZ7VZWi85u/d0UIj3CbcWpMGZpnY98G/97qM1wSEV1nyvekq1BYMKSHnMYzNDLXp/1/WFE4IZDfVJU4GThhDIZcB5EMhTnCStolb2s3xKfu9tj3OrF7NjqZEoIJIigmDfVP3dfupaWVjXOKkOHc0qROE5/RgqGRXtKghLckhDfzxN0c/kbvfLdHvlMfXqpOAIMh0+Amjq8PErozetFd7P9Yzv+vdXo3hMh5nyzVx98D0bKX+WHkmvflabXWC4lglNb6IalzSzNudHZAc4/k0ZP187wKeU963H3YIftk6p67MvSFEt6Dsas6+86/KBbKGvIb2goWjWiEw/lPWudB5GqsYLeYlGuAmZJcZ7RpQrBUjr3Vi0xjkQ4WYGgqLWjxoJCI4T+yMKSbARnokWrkLenxQvJicwd5OH7NXR74s7zYX2jBgnleybzLGQzZDm7+XA/Mfbw5/K37vu9jd0fCXfJp2s0RI6jtQlNH8ncxMZxrDEEBUHbMCqSo0t1wWJckxQM1qt8706fkt7iSevtKXpJeEM5SnCCfcX34S3dv7JJ68eaitnXMULigs4jr4tHEDREBXBcX1YRPwYHrZjvg+6YWx9T61TtxSxVbQKKMwKqrbHLddQfdnoaj2nPrx2IFVWQvTsirExoHZJlK5B3pQWa8sBQsbo9c0B7FW6Pf6cfJkvIGQy6DggFVUyqsEB+2EiZ+E55ulfh83nAmNjn8jhZK4l1wFSUh11Gzx+0OH3O7hPh0AXpFWK01AfzPM6EhMcN5U428Iz3CViYa3xu95D5++F/cXXlBmXlnxQqDYQ2QG2HtvbHL2ibGUI0notK2Kgy4rhgXhXJkGhF/ZwCKF/QG72865XoktG2t6dZZgMwEjO8NRumRX5wU0sNFkWrkDemRsyA3QBIVN/rXT/+Hkh9GSYPBkBg+NB1398euuM97f6sdSVw3m8nxQXgzS0wjuu8YqsvUlHgw8mp/E8boAzr3jyJGdVmthrtFcdRDtwYuiin5d6kqs0grlcgL0uOFI49AZ8X14S9UrtMCw7LtAmw4MRg2DVSdWk0wM0/cdhf6/qD+VWwuVFZfhdmlSc3h0ac+OtsnX//iTufGULvu9GXTW3lJpXaE1Fc268rL+GnJ/AxaYZaQm37dqYXx2GdSg5wmPQ4Wcjgi4SsN11cHP9eZdyRqOYgGg+H14DqiuIfKQuldkeuIR4zNDMxNpPogRKq1XG9Bf228RYUNboSz7bV7XQ05vOISreLWVjRqMaNOyI+P49vipuXvGJnrV1NzKpGzpBe8UJggabL+9unv9A4VtNoYDIbNQ6+nZ8taxcXPd2ngE/X0YWReWJrR9FEAvpbpKNhT2HlBby1RFfBjo8q0aEHurl5C2ZIiP9GZPxWi+MKhVrc3fEz7g4viChozi5Oq9Aiv+TdShZwkPV6AqEhyKkXXh77UkToPxpkowcE3hWcw7AQLyzM6SJc00Y3hr7QqS2UXuiOVhDsCLx6hbTAlhSoupIZ6I4RlRl53wxEdbx8/RKBIFB/j4Slo+E1oaxRELo8KLiQK0aaqLTTnSI8DQX8f3iKaqG+PXohNN55QwkvlHcJgKAToNSakQ08s46kgP4gPHx3XWJ9cbw/Gr+vuCwoQgc1FPXkSvh5oOuV2NxzVjW2l65b+FMsfSK+zdp+GwPELjVCLtM1RxeV6Dv7eZCOnSI9wloMM4d0bvSik941WjfD4mCXFYEgeIJxguC4ta3fHvldbyvDsU833kUP3AwW8xYXCRIgJzjW73BFReeTtqNau39IWjLkn34edBVJEIQLIllwhao+8fKqu6ZwhPQ6smiBne939scvaZcGBJ4EaNDUbDIbkIVB8rD7FCkahkHD3pkRYLO9eep47Z0Vlle7nYDfvvvAJV11W99JwARC0pdVXNKt1BaKMD399FXdCyTXIEyYbOUF6OphwZUnYv19tKYyFehC55qLLVrAwGFINWjrJn98Y/sZ91ftPms+DDIOcG+qNPB4h7aGmM/r+ZvZzNIc6fAgsXxsA0iPEpaEgVemqrCc9fmlaU+jruzH8tY6GoqKE9LX8ncGQenCdMf1kfmnKTWD4jxsBhUqjrayzbr8qvK66gzHltjHh8Zni4mItZhDmxk9eoSjC4AHGvqldJgXEl/Wkxy9NNQdbyr3xK3rH4U5gMBjSB4gHH54a/uNIiOIFKxwPNp12uyS0pTjxejDWvsQ1V4vSq+pQ43KAoDqMbWV0bkBTWvF2mWQgi0kPH96y3llIoJI8pYwe39tnMBgyB3JzeO7Ytxvs3N0sCH3rKppcg4TC5PVKikr1OeALGnNuYOqhFjU20xK3FWQt6fGLI28pl3/66L+5x5GbL5THDQZDZhGubHEn2n7g9jaecHWV4RdayzYDFB75v6ZQu4a4QeFjzYf7UPuCV5Ncxc060lMZLb8kc+9Yy8hGJdzfS6uLzxOnBoMhs8CSwvSUfY0nddF4eUko9pmtgUEEnXX7XIMoRj9nL5ZDlDCabYWpiOyyivT4ZfH9QHLXh7/StrK+qRcrRQaDITMg/MRXB8kdaDrtDjef0wIGebz4UVFbASPk26p7tBhSGvs7UHrwAN0edIKg+uLziDtFVpEeVSFc3/TzXRn6VKu0hLSUrg0GQ+aghFdSriS1L3zcHRLC62k4qn67MlFor7OnbITKsmoXrmpTozI5Quwva9HelBYxIT4KmsiiZCBrSA92h+D6px+4O2MXlfhYZmI5PIMh0/BDBDAcs+viYPNZt7vhiGuobImps+0RHoDoILw6UXqh0lr9d4BGfUJ0qD0GjNKpkawpcVlBevyCsHmfEB6japjmCgGyYclgMGQWEBvE1F67xx1qOSeEd0x7bNe3mG0HQcjMqKlqUZFlcb26CB7a0ZiNiVc3WSFuxklPfTlLs2o+xov3KHJd2d333SUvjjcYDNtDZWmNEF6PhLRn3PHW82ozgZzi91zsBKUlZWp3wf6yfkUk/b349cjr5UV4S3sZspVpDkxffRS5oaxOT18yE5cGg2HrwEKCraSxqs111x92e8MntOhQXloZs5ckifQkpKUdrSHUrMMI4sGMvQkhPoqZyerCyijpsb9C99IK4T2MXNWNSmY+NhgyD8JO1FxYyIj8HS1m7TW7tUq73aLFRigtKtP8IGZlBhfE//3M2JtZnNCCBiFuMlwcGSU9bWSefqRLuBkRZe1lBkN2AHKDhI62vOXOdPzY7Qkfd1WbajHbOvi3sKzw74UklF5vf2Hh1+hcvxDfuDo8doqMkR5SlcGEVwY/1Vn89NtZpdZgyA7gxTvX9aE72/kT3XMRKqtOusKLB383o+UpljRXd8We9SD6Y67fVFRILwnbDdNOeuTxSEr2Tt7WwkUvo6glbveFC4PBkGnsCR9zpzs+cEdb31ESqlo38y5VYLQ8RRJ2Z8SDsJZdOHRpJYMn0kp62lO3yuiYUR1GiDWFvRYsJLHChcGQOQQ5PHbVnmr/kZDej3WkO4WMZFhTNgPyedhWGEAQD0QSoS29+MmYsZdW0vNTUcfdU1F3DAOlcPG63ZoGgyG1gPCooNL8f77712pNoWLrx72/ejZeMkEITYiLJzD+3ySPh2+X3bykwXbq300b6SFL1YA89cBdGvyzjpteXCGPZz21BkOmgJJrru5U0/Hb3b90xySkRe3Fm4TThfLiSt+dIcTnlwb5kBplxwCCGVF7DBhlW9tOkDbSY4MZHrzHkRvaYjYr8bknPAtrDYZ0I/DgQXB7w8fdsZZ33NGWt7WIwLayYMxTOsFCcEJcJq+g+OLziKTAUHr05qP2doI0/GawND10w+7p1F1dEExOzzcQGwyGdIMcXWVJSAlvT8NRd7DprDvQ9IZrr9nzPKRNZaV2I/BvlpdUqH2Fny2YugJWJaSF8OAOBozuBCknPdQcCUhm3j8UlcdAgWQ5qw0Gw9bgFV5ITcf7G0+6Iy1vuf1CeC3VPdoNkQmyi0dZcYX29dL5EczXA0xPntTwdszNL83uiD9SSnoQ3sLyvOufeiBh7XU1IuvMeyM8gyEjwBbCpBSI7mjrebdbQlvGQ5VKaJkNYOoKwwfaanbLz7SWV8T5gXialhCXJoadWFdSSnpMO2aVGyEtHRckIfnhDQZD+hBUZ7GD0FL2RvsP3ZmOn2hoW1fRoA3/8dXSTIJdGSEJsSlmBPP1AEKJlBj5PMhvJ+2qKSS9Z242OuUeT95yj4T0GBFj9hSDIb2ANFQ9iZo72HTGnWx7XxTe27qU208rfv1+2nSiqMiPmsIQzYw9ii3Bzwfx0ZJGH+70YkSf2w5SRnoYClnOfXf0ooa3FtYaDOkFi3pCEs5Skd3XeMK9s+uXusins3bvS9NMsglaaJGfj2JGVdmadQUQ2kYkemT83HaRMtIbnxtUawprG2FlfDYGgyE9oGDBgADC2be7fu5+su9v3aHms6qe4kkkGxEUW5qqulyNhN/xAwggPVrScINsFykhveXVZe2pZX0jPyAeG4PBkB6Qv6MCeqDplDvd/iP137G9TEPZWI4sm4HSg/Q66/Y6dnLEY3F5QcfR0Za2XST1CBC+4sljasqTydtueLZXx0dZ8cJgSA8w9TIw4GTbexLKvqc7aZuqO/ycuiRNOk41yOGRh8S2QodGUMwAFDPw6c0uTfmFQduYzJRU0qOMTPEChfd08q6+byrPYEglijRcrRBlxCDOPQ3HtTp7ruunWrhoDLULgawVA3IBvphR6hpCLar0IMBAoQbCSsPcuYFtzddLGumh5hgBQ6vZ7dELbnD6cWyuvcFgSBVKhAzooqBYAdkx/47+2Z76I6r6lDByiPA8PJFTuSWnh9XGG5X97wGvTEt4Ozrbt61aQdJIL7qyoMx7f/yKEt/8Mgu6bSiowZAq0LLVxLCA5rOq7E61v6+hbbiyVUki98juZdRWNOrvo9aV2K+zKtHjnPDL8FyfW8oU6RFXz0QnXP/UQx0MyhgYIzyDIflAAaHsaCPbVX/IHWo6qzYUcniddfuVJFjKnSv5u9fBDx9oUYIPSJxCacbDW0zH4/PDbmD6geubum9hrcGQAmDdoI2suapTJ6OcaHtXCW9/4xvaWhaEgfmg8AC/B5OU2ZRGT24Q3qL0FpZm1BkC12zV/5sU0puJRnQg6OBMr6k8gyHJ4OLHaEwlM+ibpTJLDu9A02k18eYjKF40hFrl96MYs6b06OlfXFlwEwujOrJuq324OyY9CC4yP+KeTN7VCSoGgyF58J61SlcvFz8byc50/tid7/6NhLPvChl0Chmkf9hnOhEqrdaBovyehPYB8bFrZ3nFT2KnNW0rtrgdkR4MS7fF6OxTNzbXp/spDQbDzhEYdMln7Q4fdR/u+1v3oz3/2h1vfVeNxrSRof7yJZTdCKi9CiE+7DjsziiOdWdAchRP6fhi3NRWJrDviPQoFw/KP4rCiywMb6t8bDAY1gDZQWisYDxMVbbzQ/fWrl9ooWJv+JhrlFAP5RfktwoBFSjdymbdoQHRA/J45PbYh4va24ofeNukR1jLEAFMyAwUMJVnMGwfQVUWZddZu18U3Xn3Tvev3Hu7/1qI76ea28q2iSjpgp8S06hdJfHdGai9ifkRdY5sJa+3bdLzFdtBkZe9WkUhrjYYDNsDVVksKCi7n+7/90p2FCkYqJlPFdntAGVbV9GkSo89GsCHt4vah4v42ko72rZJbzoaiU1R6VXCW31mY6MMhq0A1UKeCkMxqu5dChTt77ndDUc1nEP5lRatTRgpVPgxU+1KfMGWNh/eMkJ+VOfrYWHZ7E7cbZEeCcTI3JB68hjxsqS+PCM9g+F1QLGRs8NrRzWWljGWaxPO7m86qct5airCGtJptTJPTMY7Ab3DtNQFIS7TlQEExyRlBNi0hLhaU9iE+Noy6fEPUbEdmn2iU1T8UAHz5RkMGwFTMaqNScUs0e6o3auhK2T3ZtfP3PG2866z7sDzCmUhVGW3Ao4fxwXrSqhUjo/24Xqg9vAGTy2OifiKKj+9DlskPfkrJZZm9DvbzcZF7aHytuKRMRgKA0JbotJQa3RKsOjmQOMpITqGAnyofjtC2UPN51TdMR6drzW8DG4AxaLuUHnk9+KHigL2ZQSDivHvvQ6bJj0YFEVHAYN5ecMzj3Xxj8FgeBFqO4nZLBiESX/sG+3vK9m92fVz7aTY03BMlZ2fHmLYDIrlDyovsK0EoA+XvB5pt+QqPWFQEoWRhRFfsZ0b3PQ/YjDkO1Bp5Opo+KdTYlf9QSU7to4RwtIjS79sS3W3q69ocpVl1QVfld0KOL4cW3J7pAriQfWWvB6DCJBnr8OmSU932C7Nub7Juzo6ismlO9k9aTDkMnzIVaLKg6IDIWyrEBrN/wwCON3xgYawnuxOaHjLWkPtpJDwzMhua6B4EQ61urCoY24Y8SC8ZRF4dGVeeep12DTp4XgmYXhv/LLm9FB9BkMhAsIKkusNQmSt1T1qM2EXxZtdP1XrCZvHaBmjaKH+sjhTrWHrKCku0aXktZWNOiU6Hljm6MqA/NS28hri2wLprai6ezJx200ujpnKMxQkUHcoOyqxXXX73dnOn7pfHfyf3V8d+Y/ux/v+VomvtabbVaxTI4adQXS1KLwqXQlZXkob3ouAn+aXZtXC8rqWtE2RHtNJSRQOTj9a88MYDAUCSI6hnYSuqLhfHfwP7i8P/y/ul0J2kB5+O7+jtXbNX2fha1Lh92aU686M2vJGUc+1sc94LK8sihgbVbX3OkG2KdLzLWcD7snkHX1/M2VhgyEX4SuvfslOT/1hd6TlTfXTnev6mb6d7frQner4kTvW9o7bF8ZM3COqryFGdhbCphIcXzoyyIv6oQtr8MLMj5l6nW/4ta8SBDe/NO1GZvtc39Q9y+UZ8gYoMi4eFBotTqg5ihE6hr35rDvT+RP3g56/ch/s+Tfy+Bv12LFwhw1jVWqSLdU3U3bpgyc+ikcvzhEk+vR5vdcPFS0SUnulbINBUXiX+v/kvn76PzRmNjOyIR9AxVXHkVe1u6ZQh1ZX8daxl6GqvFaJraq8TokRYjMll3k8nbznrg9/4a4Mfqa8FIAbV1fdAfdO9y/VKsRUmo3wWtJjQN+9sUvu0uCf3dXBz7Xtw2DIBZADonLKmHUe+RhXP90PPNaU1SupkSdC6eED4+sIoZTkikt8S5iQnddxpuYyjbG5Qfdg/Iq7OvS5uzTw59izTl8ziO793f9KO13obd4IryQ9jMf9U/eFWb9y14a+cI8iN2KfMRjSD7xa5M70fSWkMn0kyc3iGEJNJbaYpYENWqg5GtWxl2BqraSHs6xO+zhRcFwsbA/jfd74N6zJP3vB7LxeUXhXBj91Xzz+x9izFDqKVe29v+dfqSG8vWb3hsr8FaRH29mquzv6vbs48Cd3e+SCzs0zGDaCtgdtQBjkvDgx+bNeMAWhY3xeTNVV8PUxQHgoM0CbV0VJlSg2ejFLtBEd9cZOhRohOVBWUqZfw3NlpRVCaj4BDhlCgP6iMILLJdAFhhC7LKT3h/v/OfasB6/t+Z5fa7vfLgl1+TgRNiQ9nM38A5cHP3Hf9X0kkvKafmzIR/gL//nlHyOuxHSwweeEQEJKJImb5nm+XD5P61UQLCrk34K4IDGaygN4xVYhKswrOwBZ4dMCkBZ3dsJRuiIgPZ3EIc8xmsmQn6CeMDz7RELbT9xvb/8fPOM/IeCmSCfM2Y4fu93hY5rWSIQNSY/pKRMLI6ryLkvs/HTqnllV8hDqfyoqVxbzDd2+IgkgnvUkVqohpBCXqqQ1oMooAGAnSER8nJAUCV5Ucz4sRb0RcvK9AbhLB6QWwKtF/3cXy/diWA3UmipFeeNxI+I15AfoCKO+8I+3//cXOjA4X4+1vq2Wov2Np3RfbiJsSHrMyXsYuSaE94m7N35JE4iG3IEnCAjGP0IE+pz8CUZuAwisRsiKR9QTJMP2KUJV/7EPGwNyQW0RLq53xfP3Qmwb5cRU6a1rH+LLeJ6TldxaQLaA57EmxM9OMxgAYox02+/u/V9uYn5YHSaAc5ihDkyxOdzypub1EmFD0lOV1/8nLQ0PTD/Q8S2G3AAEFeSvUEQ+iQ+ZVUnIGIoRm59ASz6MZD/kQojJ10FoSlLFfEzeLFBvEFuZ/r0b5UsMhlSD2XmPItfd573/qMXVgJu4aWJbYcjD8dZ3XHf9YX1+PRKSHlXb0dk+99njf3DXhj53EWFTMyVnJ7xSQhEJgcn75MUgKjxnWDF4PlzZqh9jy6ivaHzuRzPiMuQiiEJZVXFp4GMVZSwHAlwL9D0fa3lHbSu0DSZCQtIjn8cu2z8//P/crZFv3Ex0MvYZQzaBF5nQtLm6XbsE8CkxiYJl0MFiGUCuy4ePPhenJCnfy/MGQ65hI9LzeeUGd1RU3tnOn+jwh0RISHrEyYyQ+vrJP7vHE7e1n82QWaDYCD0xXeI7q6lo0MJBXWWjqy6r1xAV0y15Nd5ng1R8NZQTgrybf9/n9gyGXARDBQZnHkkU+qX79unvNBUHgrwyI/jf3vULreQmQkLSg0W94/lP2nPrt50Z0glIjpI7+TTIjlAV9cbme0JUbBnedFuryi14AzzGk5zBkE9YXJ5zo3P97s7oRffnR/9Vp7gHoKJ/oOkN99auX7pzXT/VYhjPxiNhfMOAARZ5zyxOWdtZWuCrq9ylguZ3FN2+xhMq0ZHq7EU93/1rd7LtPXlRz7jd9Ud0Gm+jhLSQH98XFBj4u4zwDPmKYhEEFOIQAaVFL1b3n7lVFWlEp5BjoiptQtIjh0chY2F5ZlPjlw07g6+2VmrBwZfc35c71S8cS2TYr8BooyMtb+nn2mp6dGw23jav7IzcDIUFbupEPywALy152dLEEFEaKTYag/cS6S2uzLu5pSktA+N/sYkqqYMSXajN9TQc1mXPzGpjZhuEx3BKSA6vEctQ1o/INhgKFYgERkthyyKcXQ8WBC0szeqk9/iOjQAvfAcEx4RkhvFFl22fbSpAFZV8XGv1rtjGrDM6p+3NXSi6H2qZnb0KhK0UJJDxiTojDIZMwW9ATBQ4pgekboqdN69jltee7zhgr5uX8HYuOvVqpccvQijLUIGJhdHnLmfDTiEvkdyZguprY1WH29tw3J1of8+d6fjAner4oTsmKo9F0J11+zV0xWpieTlDtgECgSNWV1fkMcPEJ5cG1wjGeyKmePsVQ0TJ50F8iVbUrn2lfI4xyxPzI25qcUwnkRp2CgoUxa68uEJtJSi4Iy3nJIT90L3f89fu3Z6/dMfbfqDPo+iM5AzZCqK+IFcGT/BxIhWVPngxQTQE8cWrPZTeovycfkDKq0gvBpZr0OZh2852Bu5CFBp4QZqqO3XXws8P/J37yb5/p8qOXB7VWiM6Qy5AKE6nptPs/0xIj5t5vLrKFPzP8eI1hGDDgTKzOJGQmF/6qVF6mP3Mm7d9cDIQyrIL9a2un7sPheje2/3Xbk/4mC6cIXwl3DXCM+QKsK4RMhIF6uKddUSTbnDtcA1xPTFuLD7nzc+3tBJV8kukRZX0iHv5gploRFs6/EYhU3rbAWTHAEOqsac7fuROdXwgyu4dIcAjajC2goQh10AeDxFEJwRRYFZ4d4VzUXlcb+sjphXCWyFo30m2gdLjl0K6Ds306i9m3rytAXmtVdnyBrer/oCaiRlbzVwvPmZWnCc7U3aG3AM5sjnhBfy78ER28IPP6VG9Vb9qnPIMqrf06CYi6BjpiXRdmdN2DpuOvDVw4BmE2VTVqUbiD/f9e7We4K/ToZrrKksGQ65hUQhkemFM/bveWZD585kmS6679to9GuKut60AH8EuvUTSPryVJ6PLCzpCCnOy+fM2B6Q15EYHxdvdv3Qn5bFHwth6eRF0Bp0O6zR1Z8htoJgiC8MiiBZ1Xp1aRDJ9Xouyg+joPSe8XX+dIeTgtOnFCQ134/E8vKXES78tsbCFtxuDF5tQlpl0nXX7dCk0k1rJ2/ExIS4vAuFsxk8Mg2EHgAcIZ/HtTlLAWF32rV9y/mcaXFmklYik/ICNF681qrbLz5YT1ieeKz361CLzQ/qYWf9N9kIJr6RcG5176g+rDYWBAPsbT7q26p5Y7s5CWUN+ALKYFMKLLAxprj8oHGTLOc71SCtaqYS56wUGoW1gUk4Y3vIkHRhTixGVsEwqMLwM7igM7cSKwkjqE60/cHsbj+uSaMrnBkM+YXllSQePYGMDVeW1+pgdEJoT8mXwBuH2emh4K9ErBZj1nuNiVB5fsLy6KLH75Evxr0EOUix3wCino6LuTnd+IGHtGddSs0vktZ9ObDDkE4LQlnWLPJK2oViXbWA7XyLlyc+PgKOK+1J4i9NaGTE6rYyYqFetUEGegPwFYWt3/SF3ov0HQng/cXsajvlihdxhLJw15CMoaE5IWMsQ4ai8zzXQUNkc+2z2gLCW5VYv+199n3B0eV5FXTyKaR4mj8cYFiO8NXAwIbzairB2Umg4K2+8TxGDYgZfZTDkH565mcWI6596IMQ3rDd2QluinWwE1pXKshe7nChL0C6HoHspp7f8bEkrHMzPM9JbAwewpqzeddXtV/8dE1EoXjDXbn3S1GDIJ+Bto8f20cQNFUTVEtrqmtAEXrhsQEgIj4VAmtt7XsWlkOG5DWEXj2J+KVrPmKNn/rw1oOYONJ3SgZ775ZFFPAZDIWBk9qnrnbyjvl1mP7ZVdyup5BKCQsYkcwRWX5wjoIUM+m6J203peTCS/XDzOV0lR6W2WmQ9i7ENhkLAsJBe/9R9nVJCAaM+xJCM6thncwdqWxHyW2/BK+YT2FUWRPEVOueRw2uq6tDpxZCeFiwqmnQRicGQz4AHCGsnJeIbmHroR0jJ85z/geE+X1DsJxLMu/mlxFNGCwV48BpCzUp2mI5ReEwxthFQhkIAeS/y+o8mrrsnU3f1ffJ4LJAPicrLRR8qCo/faz2vFRP30lvH0L1CJj1e3ENNvqVsb/ikWlLMcGwoBJDiggcYOHKx/0+ub+qeVmxbq7tcs0Q+5aW5V7wLGi5mhddeMievCBPiZcHEJ7997OnCgLellGk/Ia1kTDSmoZryPN4fg6EQoGHt4qjrnbzleiduuemFcZ2mwgQT3S3L6KYsBq1ooTK/EnXNsuJnACLoXjIn03JGIYMetUJSehwccnV4jwhlDzad0e1kVGnjD57BkM+gyolHl1maDyPX3XQ0ou1dtbGF8yoAstSqEoCJRqxliDcow2UUMbxPb51lhbiXT8L2hQQOEHezlupdGtayY5akLS+wEZ6hUMB0JawphLRPJm8rD5Daaa3udg2Vrep9y/auI0SKn57MlL24axduo8tsffWWX5LluIWG0pJyfVEPNp12B+ijFfKzHJ6hkAAZ0G+Pyns6ec8NzzxVkthVv9/tCR9xdRXhmHrKLxFQjGOZYQOFBFrI6iubJKw97M52fqiTVw2GQoLmvOS6p7f2wfg1UXoPVCVh22JMGsNxCW3zMerRjgw2BxUSqNTixTve9q5rrGrXGXkGQyGBgQJ9U/eF8K64/ul7ovgm9DrAtsX1UUXbWZYXMLYLCW+jL1U38hXctfAeddbu1Wot5uNyubNZDs9QSCCsZc7c48gNVXkYkeEAinr7wie1gJEVI+FThIKZi6TSXe5kDBDYGz4hxLffsZLRlvYYCg1UNCfmh92TyTtucPqRTkWmGMAwXHyqrTU9sSlC+YmCueJ5UalKHWg87Q40nXYtNd1GeIaCxODMY3d1+Av3aOKWTiHhOgiV1qhftUOiINrO8rmoV8x00UKwqzBW+kDjG+rFYxhieXH+9BIaDJsBxQuU3f3xKxLa3nRTLPuRsJZ5dOTxGJRbxXCNPDfmaxtavpOe9+N1qRcPa0plWbXc3SyPZygU4MVd1jzew8g193D8qhud7XdLcu1jScGQ316zR036LM/O9xx3MWXr/N6LUaR3MQaAsqIR71E2rLAzGNIF+lDpuGJO3n21p9wXAmT7/zMtWDSF2t0uuTY6a/flbcU2HsXYVfK5eoubnLvYgaYzOjZKl3BbLs9QIAiGCUTmR9zdsYs6J48dtjyHnqssrXHhUJtrkkiI1QiFcG3Ib5iv/bZFKt3Dla1qUWmr6dYw14oXhkICk0awpNwdu+SuD3/tJhZGtOuC64DWraaqNo2AEASFgrxkALWniEzHk7c7fFReVOwpYZXu5skzFAroqWdZ96PITXdz+BtvT1meVfVHj3l1eZ1OUqFim42bzlKFvCQ9P0yg2rVUdepQUF7U8tL8NVsaDOtBHg//HfYUpqc8nripMzPJ3xPbaS5P1B3XBjm9XBwHv13kJelhQq6rDKs9hYECVG6zfTyOwZAs0HFBp9W4hLXMxxuYfqCFi2B0HHk7RjHtqjuoC+yzdbVjqpCXpEfZPVzZ5vaEj6s9xWAoJEB4k/Mj7vbod+7myLeq9uJBbrtJoiBEASOkQgV2jeQl6XmzZbPraTiie2oNhkIBYW1kYdhdG/7S3Rj+2o3O9ukE4XiEq9rcvsYTGtpCeH58VOEg70iPXAWld/IVLPYh1DUYCgEQ3sTCqHZboPD6JazVNRBx4PpoqepSldcYateCX66DrjJ8iFjvNjP9Pe9IT5cT1+zW3bW8oFa8MBQCuNgX5MJnz8XN0Quuf+qBbjmkUruGIiU6ro/mUIfm9fLBl0fBZnpxXMP6F0hPLv1EnVd5R3oNFU06SaW9Zq8RnqFA8ExU3ooQ3T33YOyK65u86+aiUy8RXokQ3KHms1rcY4G3J7zcv0b43ddvPAOBdW29NzdvSI9fEOnOi8m0iLrKxthnDIb8BSHtjBDco/HrmsPDmoI3Lz7Ug9woXqDwGCrQXN2ZZ7lufs8Xw1p+Z8zXVbol7cWJMcWMkCl2uZ/I5PdoDLVpvoK1dRCgwZDPgPBYyj04/VgLF/fGLmt/LWFuQHheDIR0QvjhlnOuvXa3qy5jKnL+jI7iOCjJxylb7TgpLnfVus1tHelBDvlwAOi2wF3O3YzuCwttDfkMvHjMwqM6+zBy1d0c+doNzDzSPa/xKw+5tpmPR8rneOu7Igw6dCx8Pl0fzA9YWJ53uuBMjgvg9+N39732L4q64orSapWBuQ4kbGtNt2ur7XY1FfWxZw2G/AOER08t46EeRK65O6Pfu/6phwl3V1dIWNscG6u2r/Gkq61oeIkEch1UqGcWJ14uZGyA4jJRSOvlX66Bn582mrqKJpXu+PQMhnwEoRzhK320t0a+ddeHvnS9k7djn42HT+LTU9tdf1D3wRSSH4/wlhFy8ML6SLYYGZjrAzUpvbOyjpyejY4y5CtQMTomamHI3Ru/5O6Mfef6p++rZWM9uAbqKpvcrroDOkuSDox8HJzLMUH5rgeLvyG9YNBIPPKCHSA9fHl49PLBbGkwJAKdFePzg7rBDJXXN3lfc3iJAOlh0N8dPqajo+i8yLc8N4QX7O1eT3vwOwovVFb1Ut99MZI31w8GiVk2OVGtgeENhnyD77YYcffHLrvv+z9yd0cvutmlxIRHaEeBsrV6lw4VwJCcf0DhrbrJ+VGtYL/oSQQBp73MbcVIYLwsuQzidnZ1ktOztjNDPgE1ww4bFN7lgU+F8D7WogUkuBFYbbq/6Q3dYYt9qzjPF/0kgvr0RARh13mpessdobQkd0NCVtfVC9lhRrZ8niGfoEWLJb/b4ru+j9SWMjTT+4IPbz3oO++uP+yONL/ldrHdrLw25yO5RODYkN8cne9304sT8vGaTScA4S2DUl8yJ5cWlWrCb32FIxfAi8kmJxb/kNfjd8jHF9hQeOCiVuPxzGMlu2tDX6jC47lEFzjAekZue3/jSbcnfEwLe/m66jRQwBPzI35W4Drl6wsZZRLF1ojSXUd6SF/mz9GWkmuEgWxlu5nfY8tkZIMh9+GNx3NuWBTendHvROX9UbsumHy8EeFx7bLMHpUH4TVXdeh1vb7vNN9A5ZoCz3rlS8QX8NpL4S1PEOJWCiNqySOHwC9GPpIiBqGtqTxDrgPFgvF4aOaRuzn8lbs69JmubCSU2yik5bwnytnTcFR312JPwZSc74QHUHncINbnOLHncExYXk40Gw85Kt7EWCnEl3ukUaSE1yB3uFK6SvLQh2QoHHDhzoqa6524qeEsk4+HZ56outuI8BAtvpDXJWHtGzoYlAs93wnPj8T3C8yZp0fAGw9fyKjQ9NdLPr0SDW8r9c6QW2DFY7Embili0JVhSs+Qq4DwZqITjr20N0e+kbD24vOixUbgfCePR077QNNp11V3wKd6clLAbB3P5GbAzEBtP4szKMMLJUVlamWD+Pg4HsWq8oTwKATkkmObn5R8ZLXc1aolxGVWmMGQe3imE0IoUAxMP3S3Ry64W/LG+4k6LeKBggmGCZxs/4FrrmaZfdVLF3k+gjQAM/QwJ/vQfy285biQ7kIBJxwiqqQnhEdpN9fuDvzshLX8koWQvzDkH1B4kBs5vNsj37krQ5+7J5N39EJ+HbiwWWLPUNCjLW8rARYE4cVuFItyjJgdyPGLz+nhRmHnNR7FRJxW7Jv1Y0ovR0gPgkPW80uRv8hFu43BgOViejGiy7i/7P0nd3nwEzUhvx6kdkp0diRkd7T1ndjzhQGOG8o4IseK99cDMUTVVqdHJVJ6HDxVTPh5ciS85W6GjKdKpUlbaz0z5BjUY0Zb2fgVd6Hv9/oYmR96aXNZIpCr6qzdp2S3N3zC1VUU1pTw1VWfy5taHE84Jl5JT1SwVrATCDkNb2lGJi+WM0pPSI4XHo8eSVuDIVdAaMbcO7osIDqt0o5cEMIbTqha1oOLmeX1TEE+3HzOtdbsKoiQNh6EsoT/kwtjGuauBx0YRK9VpYmjVyW92nJWJrbHphHkBvHxc1KhKbQX3JC7IPm+vBIVwuvTCu33/X+Ux2/d3PLGpuN4EJUxPOBI85vuSMtbSni557rYOVaF6OaXZmPhbTT27BrI8VPEIApMGN6SHysuKtX4l+Tf+j61bIQaD+Vn5ufVuN1gyHKsCKnhwWMX7Y3hr5TsGA1Fl0WieXCJgDBhAjL2lM7a/dp3nivRWTKBL49UwP3xa9qbvB7Po9cNirMqkyAR/CxsEssFjw8/H78Y0ySQ+8Lcsc8YDNkHCG9sbsDdHbuoxYo7Y9/r5OPZpckXqo4bgfM9JKqFbgsIj10wFB4LcXoK6YGl1UXtxCAnupwgvIXDEES8JbSs6P9E7fGF4coW34Ob5SEjJwGheGVZlZJftpO0oRDhd9GScMdkzKYyFB4ePAYHzEQnEybh4+HPcwZh1urI932Nb+gjhYtSIbxCPO9XVpc0J0onhvbcrrtpqEdPOAwVvGEhQ/8nBFJRWqntXOWqnHIgTyYMDuHxsxsM2QTUCC1S+MdG5vqU7K4Nfa7ENzT92M0q4b2+aMG5jaJj4dXx1vMS2h5zYSanaPGuMG/0hLZMi0bprQeqrhLCk2NGBLh+YnKAWHjrlR7tLJXyxWb0NRi2DxQcFyZdFVcGP3Pf9f1BQ9txLCmb3NgFcCgw8v1Iy5vuaOvbOigX420hgw4MvI1sP1sPVB2NFgwTRh1vBK/05A9SkIXAZXoXMRgMWwFERjjLRUn+7mHkmhDep+7C09/pbloUyvpQ7FVgLBLX457wUbWmcCFTtCv0/LX350XcdDQSe2YNWNmYn8fgVI7fRnhB6TGDC38LJGgwGDYHCI9wFXVH/u6OqDr8d+TvRuf63eLK/KYJT/N4xaVCeB1uf+MpIbw3XXvNnljBjuuysEmPAQzTi+PyNhl7Zg2Et+z1xYL3KitPjPSY1oDZl30ZtbpnwkJcg2Ez8ApvNsrAAHbRXnDXY2OhmHq8VZCnrq9oVmvK0Za3ROkdV+sFBY1CJzxuHORJ6cQgL7oecBYVWyYvId42gic9+VPsaEcrdzUV9Z749CAbDIZXATsK1cTh2V4d+PnN09+7u2OXtBF+q6BwwUV7oOmUO9n2nutpOKK2LAOEh1XFq2mUXsJChvxhERD8RQV3I7wk55pCnTpb30y/BsOrgcLDYPzZ439wH937T5rDm5gfStglsBnQXnay/T13pvPHblf9QR2bZvCg3Wx8fkC7MOaXZ2PPrkF9u+zLqWzRx9fm9BSinCnxhkOtOo2YLg2DwfAiyN/R9zk+N6Ah7Hf9f5Bw9iv3ZPKu9oJinN1sh0U82mt2u0PNZ7VS211/SMdE2fSgNdCXzBRp9oYkCm2JUunFRymzDOlV6bnnn9EQV74QpmSlYi6vhTQYkg3vvSO8mtRiBSHsxf4/uRvDX2t3xau2lG0Erjku1vrKJg1pqdKynJtEPMpFlYghduyjWhUfmxvUY70e1CQaKls1HfA67nqBDmHHcKhF30JMHbWDbjBoAh33/9TimHsqig6iuzTwZ3dj5BtRfINqU9ke4ZVp0p3dFocgPFF4RFlWRHwRjJKiaksBYyYacdHllwes4j6hN1mtPYzJewVeOrqY+4iJ8bv4Kq4Rn6GwMbc8o4MCrg1/KeHsH93Voc/d44mbbmYxogoEJbJVcG3RDLAvfNy90f5DzeGh8CykfRmkE9hvSwED8ks0TooaBCswKcR6lbwxXiI98nq4mesqm3U8C1XdbMMqcnclqpUcDshq3Hx8gyEZIC+HEXZ49ol7MHZF83ZXBnwrGbklej9Rd1snPCqMFa6lqlMV3rG287qn1vfTWh95IgT7Q8bnhxMOWeW4EZmqP6+EHSGv5qwEOrrIVZfVq1EZf1BWTnKQcGP52ZLKXewC28gbGwwJ8XxA5eKo65u+r8WK68Nf6dLtp5N3dKTRdsJZwMWIf4zWst1CdIeaz4jSO6lrDyBCi6peBjeV2aUp9TxOaaHo5co4NhXSBBiTOY6vmx2Q8LNIxNbqbmHOhg2bdjMJDgT9jchdloMYDDuHNxlHV+a1R/bh+DUNY7Gh3B69oAu38YZth+wAhKaTjCSk3d0ghNd0Rke9Q4BmPN4Y2umyOOHG5vqV/BJNpkGcMYiBijcFjdflRBOTnnwzkx2Q3NmYYyD0IJdC+PG68TwGw+vATRQyI180OjcgIewl983Tf3Ff9/6zvH/Fjc8NqfrbCbylotH1NBx2R1vfcvub3tDeWsOrwQiuMbkJYQdaWEqssHGctNXs1ukqm9mXk/AreIHI61HUQI5nG/FxkgaLVQhvDYbtgKosSXGm70J2DPeE7L59+nv3aOKGTjVelZvq1vN2L4KQq72mR9vKKFqg8GrKw5a/ew14fQanH2vFHJW3Ue6+IdQspNejpLeZsXgJv4JvpI0DKV5VRjUk28bZyGmouZdFbQMyGLYDvXHOj+hElO/7/yhk9zu1o1CppUjGubVTwgNUZo+1vuuOt70roe2R50ULw6tBfpUCxpPJ225OXo9EyXu1/ZQ36gBkJkRtJi+6IS0SGzO/C+Pkq1o6MgF+dQ7IkoQcnLgSnPhPGAybAOpuJjrhnk7d1V0VeO4gvVvD37rhmd6kRA/klZiMggI51no+RnhH1Udmg29fDW40vEYUKodmHusiJdILL96AfDMFqTg6MVB5vv6wE9ITdUeSlT5crCvZhMAsSpxPcnkzU2gNBs4bbpIMoGT94h8f/L/uD/f/s5Den9zITJ9+LhkgbKUVqrW6x/1wz792pySk7azd88rJH4Y1BHahh5HrWlRKlMdD0bGrm5sKu322koLbkPRKRd01V3W5ttrdWg7OxoIGd4O56LSGIv6E3XkoYsg/oBA4P4ZFMVwWVff7e//Jffro793jyA03tTCqDgAurGSEsgDVgSXlXNeH2kuLJYUUkXVabA5+NuGE6524pdNqEi1P0hScKGk8ji3CU+zG2Cw2fBX4S7kzMdsrXNmqy8CzCZyeVG4jC8NyN/D7L43yDPHgYqFXlkQ41pPv+//gLrGNLOa5m5YLS9Mj8nXJIDysJ1RkDzafdSfafuAONJ7WawerymYS7Ab/mi2IyqPHtm/qnoa47LmNB8eSY4ovr6tuv2sQpbeVlMGGrwQSHWMywwdaqndpy0x2wdsM2AxP5c2P4zbaK3T4fNCKWh1GZp+6RxM3dTEPOTv2VTwcv+7G5CaJyx9FkRSykyiIGW6kgxj+eaz1HXew6bQu4/Yj3jeXazK45z3OFDCYOr2gnS8vKj0mQJFyY/F5U1WnHvut3FRe+ZUQH9KcELdJ/oFsk+ccjMn5EW369k3IRnqFCtQayp9cEItjnoiSuz78pbvY/7G7OvSFuz9+VaehcEElamXaLsgtcdHhE6PD4mjLO25f+ITOxsu2XHi2gxvQ/PKMtv7R20zFNpE7g5sMhmTGcTFKSlMHW7ipvJbFquQvJ8Rl+kO27cRF6dEuhF8vUROyoTDAecAeCpQBBYpLg3/W3B3KjjYywiRVdkk+R7jQuCa4+BgLdaLtfbe/8aRavWwI79bBTYt0BL3NKPToauKbE2kE0m2dtfu25Sx5LYOpD0Zi58aqNtcgqi/bchM6cmZhTGP/6EpU7/iG/AeqgJQGyo2+zAei5K4Nf+G+6/tIOymwohAiYU3hYkrmeaHV2RK/MlV3WUg4e1iHfx50dZWMNtqa8jB4KOHNPlWbyvTCuI6UWg86LkJl1ZpKwP/4qrHwG+G1DAbJUY3iH2mv3aMkmE3Qu8PSpK7Zm5ODZoovf6H5ulgIywVCP+ajyE13VRTdhb4/uCsDn+oUlIHpBzoYgCUyfH0yoUMDYhcdU1JOd/7EHWl+03XItcFINiW8LBMG2Y4gD0uulaLT4MyjDfcD4x8mpKXXNixCbCtV2wCbenW4q5E07G44HJPt2XUXo42IpLWvxhnp5Rfk1H/mLwrytrzGmFUfRW6omrsy9KlOMIb48HWR6khkcdgpUG6QGY4GhnEcaDrtTnX80J1s+4HrrNuveT1Td9sDig7rGTlXDOOjswOxz7wMBBjeYW46qLztRJ6b+o4KIT3yFF0SQ1eWVGddiMteAsIYJmQkMjIachPc6SEwbCWoNpTA44kbGsZ+/OC/qN+O1jHCWHJ6qQIhFXkkVFxzdaeGs+/s+gvto6UjINuuh1wDaYr+6fuaex0TwmN010ZguAA7RHbVHYg9s3UUyV10UyXPYKDixw/+H82f0A2RLaEkITf+qB/u/htt+WFstLX65D4IcaYWxl3f9D33ZOKOtzHM9utFQZWPczIdNznN31UyEuqIO9h82vXUH/FKo3Tr+STDi+Cmxu6Lzx//g7sx8rW+n6i6joomlD3a+rY71/mhO9rytqq+7WDTtyjKxNzV9jQcUxtLNt3dUAK0FnHAcHBzMRhyD0FuZ0JeQ9z4LM3+9um/uAtPP3LX1HZyRYkPMzrKL12Ex5i1I61v6WpGwlrUnhFecoC9CIVHHk+HhG5gJ1LPcGWTWufgn50c/00zF8oJZqViQn6PfzSbEraoTpLXQQLbkBug0ICdhJuVmokj190thgAMfuK+7ftICxR0ULCBjLxPuoZLcJMnpdNdf9gdbn7TnZAIYh92FJ3mYXaUnYIb3NJKVF9zPJTMLPStpIlBeoGbTZvO+QzvKJLbdHjr8yt+mzt9i9qkLT8w8Xg2gBCX5mPyLLQAEfNbFS37wHnEKYeFhPMJwiNt4tf7DWgxAtWOFYk8XTA4ku9LBzhn1AdWXifn0vs6zr2jbq+2k3Gj9xGOFSx2Cl5TuqmYTn2h7/c6N08rtgmKUIS2+IVR2mfaWYR+QATY9hehb5r0gBKf3JmvDX+lFbM7YxfdrMjTdJ2Qr0JQWTvcfNadbHtfFycjgw3ZBb/Kb0xP+AneFkbUm0VoAwFqTkdOfiU6OTV9JTY955f3pDbqzZMxUCg73te1CfK5Yp3VZoS3U8AXqLrrQ1+6y4PYjC6pz3YjL2WFXNe8Dud3/UpXZZK/34l1bkukB/iBKS3jdv++/2M3OsdIHhg688SH5KUBmSQnW6YwjpqNIDPwN0g/gp2iAykH8jU6IGJuUEcGQXTkdKajsdV+ckPV7XYbnPypAnPYKkq9966rbp/raTiiFUK8YLoKVS8wO4+SAYhtUc4D5hZe6PvI3Rn9XjnkVeP4SacdbjnnTneIyqs76FjovZMlSlsmPcAJjMojyUy7iE6ZfUU8nk5Q0uYufVxIj4NEItosBekBd29ugDySr6GgNLk44lXdwqgOAUDdofQwF/N5xjpBhii7dENtKCUVehFBeOyvgPA6ava6+lCzWlQsnE0mfBcN5wMq78rQZ25ABBQpjI1ytShsOl3e7PqZ5lbJs3JN7wTbIj3ASG2kKT88vXKv8takE/TiMQfwYPMZ9273rzX5yYo4QzLhExrctTU3Jx8FBQn8kjOLk0JqE2okJlyluEQYOyWqjpxwpkhuDX7qLv2buPo7andrwQJ1x+BP8nmG5IObITc8hgl80ftb1zd5TwXTRoQHairC7nDTWXe++y90RmEyRMy2SY+Tu3fitvuu/yN3d/SS+vZe9cOnC4SzLDTqqN3rznR+oFNr2XxuYW5yoGGrENbq6qoo/mktNszLDY/igw5/YOrNvISvEsJOLo7L8xG9u3tylPNDTjdPmZmDt1+FtXWMFAiDKHmffc9+2KedK8kGKQvydvHTb0hpbJTHC4D6pjh5RqI21Hgy/LfbJj3u7ORndE7ZwGfa9E1HRDaAA1Mld3F6hX+6/9+pt5DqjxHf1sHJih2I9MXK6oqGr5ys5OJQcJzIkFz/1ANV+xAc+Rn2lyxpuOuHdGYaqIOSojJXXlqhxQo2kkF4nXX7tK2JMVCQoZ0jyQc3OVJieC+vSWR4VcLajSYir4GhDhUiXH7izsobu4IZNJCM12fbpAc4ye+OXXaXBz5x98cvayiTLSBfg6+QA3a688ea5yNHY3gVYhospsZQdOTdZiQEWVie0RM1IkpuQm52KHvychQpyNVF5obUWMzfkV3woSx9mkzYpQrYVXdA1N1RTYMwJICQycgudUAgeYX3lbs58o2S36vAa0Euj86q93r+yp1sf18n2vjFPzvHjkiPuzi5Gl96/kS3wica+pcJcOCoupGz+UHPX2oitJZdozvMB+QrOA1Qcag0r9YW9aY2JSEro7vJveDLxCQcdETkAghXfaGiU0KlQzrgk2LFWleRkV0qAUeQ4mDG4ZXBL3SKCjfQVyEQLOwXeXvXL93exhPbGiG1EXZEegFujVxw3/b9Xsdyc/fPJqDuILzzPb/ROzyjaeyu/jIIRVmSg1EYS9Lk4piSHEUqwlhCW0DeNt2Wkp2Aaj79sqfaP9DeWZZcQXQ7TYYbNgcKF7dHvtNmhsei8EiHvA5U1BtDHe4XB/7O7Wt8Q29QpcXJW0yWFNLDTX1r9Fsd73N37FLs2ewASWl8PvsbT2moi4/Pj5jOrrmA6QL5NYoPjGciXF2zkYzrGwUqLATk8Xgkf6cTbGOnSaaLEJsBan6XvM5BRZaiFoZWChVlJcHrbje+VAObEovUITyKnhAgVqZXgeuSHltyeD8T0mut9ntGkilUkkJ6hD5sIael5Nunv5fQiOkX2aMGOJCEN8dbz+vSFi4CiC/f7/bkUghRpxcnHPuBsZQQls4sTbjI3IgSHM9NC9nxCMFhJwkKD1qllfdzgeh4jVFxway1jtp9eoMjb4cFRa0OxSVJvXgMicH5Q6TwYPya9lE/GL+iBMgIuNfRDUNN8OWRxzvV8YGrkRtVsqvpSSE9nXo626/7CL568k+a93mVwzoToPLTXrNXiO8dt7/plGORy1a3KGUrICdvCPaVU97njSIEhMbuCAyhnIh8rMZgvm5lSRXdstx9+Xr+nlwguAAoutKiUldeGpIwtll3JpCvYygGBMgFFAyatFxu6sG5Q5V/Tm6sTMS5OfyNjqEj779RX208uHEx0YaOqje7fq7vp6L4mBTSA6g9DMuMAMLGQotRNl1APjlarRYF+vfYScr7XBS54cuSoymHk5wax5WXLXhEzaHaJuXkouiAnQRz8KwqO5ahT8dU3qwQ4awSHN+bq+D1KnYlammg+tpS3e32ho9pONta06NrS7mAzG+XPnA+cV5hTGf68UXhAKZbQ3g8vxlgJdrXeEJ9eafbP3ClJfIapkCZJ4309BeWC415Zx/d+791RhYXY/aEuTEXvoQ6KAIOLsTHCPxsb1XjhOIOijpjvBJmYMhMiUzeZ1UeFTLfx0pHRERzdYH5c9XFwlSIkkf5k6tAsfkds+26j5nR7by11fZo0SJUWmNhbAZAnhhjOoRHX/7jyE3NEW9mtzCvFdcf1+LJtvd0EDCCJFWvYdJIj78murqgCo9KLtKWwYDZNtATAyrWFS6Y3eGj7kTru9qqxqgaVQcpOtCbBSEmyd7A3EsehB0gEBwLkDi+EBrKmpsM76PevCE41vdK/6u8ny2TrXcKVDpExw1LV5JWNrmu2v2uvXav5u/Iz4ZKqzThnQzHvmHzgNA49xjz/njypnZn3WX6kpyfmyE8gCePVMTRljfdqY4f6Tiv7U5F3gySRnogMLP2TtKe9gctVZND8st6skddQG6QXLNcMAebzij5sbuU0niyK0WJwImgCkyOF1YQ3/GwrITFW1BcIBxVopP3WYnH+3xOG/V5k7srFdZl+f7X5UtyDdz5uRgCnx1VPPKw3KDI1zWFOlx9qEXJMFmmVcPWQPSghDcnhDdxU0dEPYhcU6P6ZsgOkIIIldZqHpYlS6zSxECeymswqaTH5cyBIJFJXo9S9cDUQze3PJN1FyWKgLBWp7II6R0S8tsTPq4qwueDind84PWFJ6SMnQDBxxR+CFWjQlyQ2PM3uTui1iA3ciEUHFByaiVZZPFRdhWHkgs52nIBBH8Y2MndnxsRZMfgSKqxhLLlpaQjLITNJLieF+SmS481RQusak8mbunIsK2AQkWjiA8GtrJwyfdAp3bgQ5JJz4OLG1/OlUG/nk/NrVkYaunlRVJcLiCGjp7r+plOXOZCgxBRENut+kH+QVUVmQ+CsUsLQnYUHaimsuiGvmW8jqi7oIIa5N54eYJHjmy+gtcA47gvLJXERrUfEiV+Wh/jd8oa2WUWnNukXxj+imPj6uDn8n6vip2tihtUO73xdF5gRK6pqE/565sS0gMUMfDpfNH737VsjZLhgs5WkBciP0SujwuNXl0dS1Us4e4riS8gJDkZqKzGSAqiY5MXio3pI+Q4MAHTuwq5aQ4u1vZFqErRYbM5kHyChrFFZZqvw0DMDlnCm+ZQp/bK1lU0an7HhgFkA3wkR9plYOahqrubw9+6Yblpc/5u9fqmBs8UFcbAs+KBkfykl1KNlJEeINbHwnKRMHf6oRysmdhnshNBzx+Vo576w5pnYFLL2n6EtdwRL74WDYS0+L007xbFKkJz/pxbXmEX75SGqN4YPBMLVyf0pMF6UsgI8qrcZBpF1XHDwUjMIyrvuaE47pgbMgcUHDdoznMGB1OdJXdPyyIzErd6s4bweJ1pFjjb+aHrbjgkSp5CVOpdFCklPQ4GEpjFH/Tn0vpEiJftIIHOxqX2mj3a7IxDnF5Alp4vP/OjkmjI10KD5twi8ns+1lCVcVtYR1Bt3PlW9fD6OyTwSrDwCA+1THjKHhN2HgRDADi+5HEoTBDqBCQX5PcMmQfnMjftsfkB90jIjh77IVF35JmJVrYKiK2suFII723tvKCYSC49XUgp6XkpPKNz8GlRexi5qubZXADhVLm8MJpQr2jQQZMkWH1ouuhmRb2h6iC+YDoJJ0dQgTVwNxfSUvKiibxSe6B3SziDiRgFTe7UW00qtUqbzKZyQ3LALRqbFKOhEC5X5DpekGua83076SoUHrlbRkX9eO+/dUdb3nJ1uCZEaKQLKSU9Dhl2FSo8d8YuaqhLWZsDlu1QnRErcnBB1uHyLynTiisnQnSZnNyiEN2yfuyVnLynSi6FhzQHwA2DoZyEL4Sr9MNSJYfkyJ3yiFfSV2EpTNAmpkc89jcYMo1AsPRP3XOPJYyF9BgUS0vjM4pt2zzPUfsQHsNB32h737XV7tbOmnS+9ikmPX+nIFHfP31fDcsQX//0Qw0RcwVclL4lpvj53Y3HoMJa6PDbxKo0PCUXxzQTWooC0iMnyucqy6o1b8qdnhtJOvI3hq2DoiO92uThWb7Oo7Y3RiWc3YFgoUhBiyD90cy4pGhVXVarqY90IuWkByAHEqDM02I+/rXBL/TA5kvHQKEA1YuKowjBGwRWGrOZ1FY0aA6UCmyg5CgKcVJDdiSp+V5D9gEK4FpkYAWuC/LwDPt8NHFDfbba9bPiV3RuF9zgiJawHx1tfVv7a1H9mTCWp4X0AGEulo0Hkata2EAu00dqSil7EW8W5m5MEYLdI7SCUYjgpKXgU13eoAqvrbpbCY8uCfJ0puSyGxqgiiDBEI8IwV5FCEv/bP/UfSU/8tZ85U7A+UMqg9ZBDMinOn6oQyIy1UmTNtLjAJMPw7GNv+frJ/+sOy9zoZpbiEDVUcRBxWEdqSqv1XCVzXKEKFTb2CiGsqsV0oMUUXJq6I7l6AzZCyW7Vb+SkWGyjIYj7aRtZCJOGGjBtRm4DrYLCI/zgkr94eaz6sfDB4tDIlNIG+kBDiAyeXxuyH32+L+5u6MX9QBvp+y9FfhiBGFZ4tlctIXxAu9Evuc6fKjqe115o6paJ8RGbg41h4cOszatYSg+8jMkpSHGjY6rIfvAuY74wH3Acid8dkxEYgYmC58YOBvsJU5GFBYME4Dw8OTR6klhK5NIK+kBiI/q7a2Rb3QEzb2xy5rvC6qfyUIQknGXqSqr0QNPOAYBBiqE3xzPHD2v3kQ88/zuls9FCo5NMH4pOE6EpJCcV3PNouaaY6FrvebmeI5jmO1juAwvwoewvHkzPWQ3OtunxQmIbnSuT/2lXIPJdlVwXpEGwaL0Rvt72mbGkI9M3yTTTnoAUpmXg3916Av3Xd8fNL+3nTaWjcDBVsd/KRdrk2upFpUi8pqL2k9R8RctJ8QqucYF1hrK2/yovPijercjoZuPfjutRMuxIQcXqDSGq2IpYQAnRmHawBoqW43gchr+siZ60TmMEq7SFsmyp97JWzoVhaVP3m+XGicF5w/n05nOD1XpEeISJWQaGSE9AOEMTT92N0a+VuLD4Y3pNxkoL2HHabNuPzvV/kNtKYPwVOXJn/VA7fHiE2o/jNxw14WMIWLufvkEfncIr0ruvvsbT8oJ6efRsUSHMFZJThRg8fOcnOXlchFe3Xkig+wIYe+NX1GPLOqOAuLKMzqGuPRTd/lzbjEq6t3uX6sZnY6mbDinMkZ6AP/e0GyvTmm4PXpBX5Cd9ucyUZdNSgeaTqmsZneCryYiqTc+4NztyGXgRRrEnyR3QsZd903d16RuslRoOkHODTLjBoCFBMtAONTmWmq6tCARKq1WoguODzcFQ26D64clPGNz/bEQ9rEWD2kZo+9b+8I1d53ay56+6mMt7+gwgX1ygyXFlC3nV0ZJjzsSLxLEQj8fVV2Ij57drYLcHQlSpq4yJmpv+ITmpwh1izepWny4u6Jb+8l74Cukk4Q2uu38TOkEJxShe5WEqpxwGITJw/mwvlFzK+TkamOVVxSfql45NjqsycLYnAM3aiIUiIziBIUITMR0TTDsg3OYsW7z8nmfo2bcWWrVHekQ7Er00zL6/WDzGb0OeT5RlJUJZJT0AAqKPQ8Px69JqPuNSnByDVtRVkEi/ljL2+oDYiwUBLhdMywnCFOJaZ97GLnuvuj9rc4LQ5lmCziJyMeRl0OtaRN/WZ0LV/mWL23/4k2OA4qPr1VDsbyVSgi7mZuAIbuAy8GvBMBp4LfdkYJhLiOFOAzFEN2kPMeNm8jFD75IT/cTN17aD9lidr77V6rwiCywPWUTMk56AIU1vTDm7o9f1eLGjeGv9UUL8hKvAxc9I4re7fmNO9LylmsKtW+b8AIExMedk92dF/o+UkWayrvkq+BVWexR3iA7QtTO2r16kgWtXsyfC0iwsqxKTzhfjDCSyx1wRfDAoz/feCTnzI0YRUexjUG0hK7qfpAIhWKcD1/9hJ/0okgLYm01e9xZCWmPtLyphPf6eZTpR1aQHuDuBcE8jFxz14e+1FB3s9vUIDxG1DBjn+Q8FotkSGlOHIhvaLrX/enhf3U3RYkS5qb7hAoq0ZBaoyi5GnkkR4dJmOZthm0SvlIZQ9ERsGo4IW+bDe0NmQfnFfk2rgXSPuThmNHIPEbWeGIknpGPmdMI6bEQiq+D6ACV2mCQbbpvzqRUKFZQpWU+XlhuyNx8szFtkjWkx52MrV8kYOn5g/hoh+HFfRXJkMc60PiGe3/P37ie+iNqxYAkkgX+be6kXz35Zx1/78v8VJlTd9j4+VFyhAq8qYdOFBwhK28QHV0Q9LRyYvFGCGurD7MdcpbL5aZFMyE2bqCsDgAQnZ+gPaskBrnRKcGbX+spJCc34CC85TFYKJXum3A8qPITTUB4B5pO66go0kucj9maJ84a0gO8eLzgvkf3mrs6+Jl7MnlX73SJFB8XONXJE23vug/2/lv14/mZbMm78CFjTk42u10a+LOqPe6uQdixU3g1xsj0Es2J+GKEX3NIJZr8HL+jVmFF2WEWxnICKWaqd9HwIpTInJ+6A9hw5xWXNwQr5GuCzh+e4xzye4oj+mndXRydVPMwG+50n/GSX9bONcHbZtM96QLnLmOhWqq63IHm06LyzinhUTDLZmQV6QHIhOTr5MK4blRjKgvNz9wF1xMNrVMYaQltz3f/RaxKlGwieKY9ivQmXhTS++zx3+tdeKeHjRMG0g6KEdhHghl0hLAM3GTtIXkRiI4cHYT+un83aWS8jRvH1vpt4/6FLX1fkqGHyx+z+P/HY6NjHhxrSIyiAYTGc0Qsuu1OTcE07PvQMypKjaGzUd1lPCvnkV/MDig+QIK+5zUXTPFFSng4BI60nJO3t9UPy8fZjqwjPeCJb1nD2xtDX7lrQnyElYQE8Xc7JDTjxk+1/0hXyKGGfNI+uUCBEk5cHvzE/dOd/1NtADu560LMEB3jlpjKjJqD6JpCnWoUpurK5/l3eXmUHuAF+Tej8nOgIhKBr11N0riuYrmhbIXE+BnLn3v9Xv99kH5QbCotKkvBzWpz0BAxdsy42a6/HMixeSPvi8ec1z8IK4MJ2gyV9V5PT2CsEWDrP2c0N23UG1ED5zf/jreQ+L+Xx50M50w3eO3ClW1uf9NJvf4YGRU/7j+bkZWkB3jhuRsy+QHjMsNHqVwh84OTDdI43nbene74sTvUfEbHuacij6CnoRymywOfuH+49b8J6Q2+dBFsFpwU/JwddXt1h2uzhOQkfRnXhOrzX1Mk/55TJUCOhxwii4Ygfd2/kYDYIGWODVVv/eZtgp+POzjjokrU2rI5UDxhph75xc2c+Fw0dM6Qg0XhZmpUPMeNY0Z4magly4ebc0p8AQhfIS9eH4Ay4zXhe4MbpM+7LeprB7Ih/5YsICxQdFhSTnd8oCsciUaSmUtPJbKW9AKQ18CwTC6NqSzsiMWTxGXGxflm18/dua4PtfsCdbSdsGyzIKf39zf/122THicLXRGMYyLvQd6OqhcnS6Acgp0b/P1cjAHhcWEFuaBEFw6fI9G9Uy8hPyPkS/FkK6qZmw0hOkNFN/N9EGPw7/A6boYoUwGIiOMWHHfUVzwgPE+Ga8dcJ5XIa0IoWmjgteUmRdHiZPt7Wq3lnM7U67cdZD3pAe6YuMy1kDD8teubfiBEEFWSO9/9GyG9n2pjsx8mkL2khzG4vWa3VmDZhcvvwMUGsaPoDIZsBdcV7gAqtYx5f7PrZ1qpJTWTiugqlciJnxb1gAGX9jLuMPjyCDm541JUYEMZd2l5KqtBzoheSLbCD049kvef6KYplITBkM1AyVWVei8eW8yYjUcOPdcID+TET6x3GTnobaKS6OVDUpMPIyxEKZFITmUTNaEnYRAku1Pw97BcxW9S87mgnRRFDIZUg/wrU4r2NZ10P9zzN1q0wAyPeyIXkTM0DfExqYHlM4EJklARosMWoJU3/6VJB6EsBtFgifdO/h0Uqk94+yGlwR+DIdvANYdDgqEVjCJjasr+xje0Sovg2JpFKXuQU9oUtUeFcFfdQZ21T7jLBBFN4i/P62OyU5QQ0rKoseHZJ254plc9VjupjhoMuQDCVnLkdP8w4v1oy9s6ro3WR1+lzU3CAzkXkFPxo1zOCwHx0XqGcRclRjUt3lqQFAjBEY4+jtzQabNLywumywx5jUDh4S7YGz7mjjS/qfYUFF8u5vDWIyd/A8rm2BwIb5m7T+cCvinMn6r2kkRLhKA469n9yYgp7DL8/eg/gyFfURlLI9FWdqz1vAiMY0qA+UB4IGd/C16A8tKQzotjUxd+L8brqK9N/VY7IyYIjyIJHsE7Y9+7kdk+tc5Y/s2Qj0Dd0cuNB49JRYdbzrnjEklBeAy7yBXj8WaQEz691wHLB+54SKm0uEJeuJASoiZb5c9W4QlvRr2BD8avqj9vcOaRPmcw5BuU8ORawVzeVN2hMynZTQv5rZnUczeHtx55QXoAxzzN21FReRQ8MC5X6gDNEvkteVk386J5HQe54aFjtt/tkQtKfLj2DYZ8BOKADiG8sDgj8OCROqKlMB+RN6QHNAe3TNuQn3fHi1laUqF+ohK5W70qJwHdQZyrq6vu3vhlIbtv5fGS6596FLOpWFhryD8gCigM9jQcccdbzyvh0Ruez7MZ84r0gDZ+r65ocz6KjRHv3LHYzs8uV5ro419MjMF8LVNpR2b6NIxlExqbpJjrRxO/wZCP4Dpg4AVLfCha7AkfVQLU6CiPkXekB1BlqDM6NRhCyqBGxvZgd2HVIdNZAIoQUqPwQU6QKS548SILw/K9zDWL6tcZDPkEIh5WC1AAxHvHG95X1g7kq7qLR16SHuDXwlQ8F53U/bVsWRsQFcdYoLKSMg2F50QJ0mXB+xIcy+doEVvUjwl1LaQ15BtQcRQnGL5LKIvBv6mqU4sYO12mlSvIW9ILAHmx44L1eGxZY5ctH7MndPnZkk46MXIzFAqYXxh0WNBS1lzVoemffPHgbQZ5T3oEuwwjIHwdnPb5ul7N2T3SqbaJBnIaDPkEb+YPubCEr5j594VPuF31B+TjdjX553sObz0KgPQ8CF2ZW8e2td7J2+5x5KZ7OnXPjc8PPg9pDYZ8AtOs6Z9lQEBrdZfrEqLb33jatUtoi0WlvFQUXgHk8NajYEgPEMZGlxeU6PqnHmgvLR48Chd0X5g1xZAPgMhQb3hVcSx01u3TzgpGQjGLcqtTsfMNBUV6AVB97D6gUntn7KIWOmg38/snmNTCVxn5GXIPEB4FCYZwsJoR/93exuM6mIP8XSHl7jZCQZIeak79eStRDXlZPHRv7LLrn36gy5VZSEQecP2+BIMh24G6Y2dFW023291wzO1rPOFaJZzFcJxP/bM7QUGSXjyo7k4sjGjbGRVeWs9YN4m3jwpvMqYlGwypRKDuykoqdaI4JuO94eM62r2+otlVllXl7JTjVKDgSS8AJmX22WJmfjxxQwjwng4cYPMaxGgwZCPIzVGsqBIlx7Lt3UJ4PDIsgLWMhZy72whGenHgUDAv7+nkHc313R+/ojYXiA9Pnx0qQzYhMBrTSYHZ+O1dv9RNZTVl9QVjNN4OjPRegie+yYUxHRpKdfeqLhofsK1lhqxCMEE8GBTASDVaLQvNd7dVGOklxDO3JMQ3F512kQUf8pLv440VjsEUF4Mh3aBvvKYiLOHrbiW8XXUHVOXRSsainkL03W0VRnobgAovuTwqvFhZRmafuqdTd11v5JYbmvX2FvKAlu8zpBoQGXk7Jhg3VrW7tuoe19NwWENZlm1XllXrTgvD5mCktwkQ7lLJpWeXrWjk+ih0YHJm/eQiy4Ke+ZWOBkMyoJqtqFhtJoHJuKf+kNtVf1CrsnjuKktrhAwtnN0qjPS2AFQd6o5WNnp3mdXXJ+oPAjTVZ0gmIDLGP5G36xCSo2eWZT1NQnZ1lY2m7HYAI70t4Lmpmfl7ixOq9AanH7t+IT9C3tHZfvX30fFhMGwH+OlCZTVKbJiKu2r3uy4JY9tqduuEFCai8DW5umg7G2Ckt00Q8jKannY2Kr0QH4MMKHSQ76PTg3ygqT/DZgCZsYmsprze1YdaXIeoOnpm22t3u3BlmxKhkV1yYKS3Q6D+UHbj80Pq6Rucfqiqb2i6V3OAC7qLd1nJz/J+hgBrObtSxyYyChIMA2A5DyFsW3W3Fi1qysM6/smQPBjpJRGQH0TXN3XP9U7cUp8fZMiWNhaR4/Njf4cRX+ECshO2E9VW4ipKQq6mosHVVTRrCLs7fETHtjeG2rWAYaouNTDSSypE9YmaYxozJEell7CXMVaDMw/d1MK4jqhX8rOwt+BASxjmYUJZOilQcox7YjEPi6sYCoA1hW4KJUdDSmCklyIwlJTQltweRQ+GGjDFpXfithuQR5YWoQw17DXll9dgmCdERjU2HGr1tpOaPRrONgnxUaFF9bGpj682pBZGemkAubzo6qIbme17rvyo/EbmhyUcHlMCtBa3/EKQs8NHx6QTyA5lxxQUChRsIsNsjAfPkF4Y6aURFDSYzjy/PKPrJp9M3tEWN3btMuGFai9VYfZ2QJSG3AP+umDNKNXYusomt7vhiHZQMPmEggUhLqquWP7YUM/0w0gvzSCUJfRlL0d0xXd5jM0N6HJxzM5McGZhEaGxIbcA4eGlg9zaa3a7ttrdWpiorWjQ7glyeRCi5esyCyO9jADiE/qj6LHqix7TQn4RITtPgv06yJTdHWueP4YcGLIJkBd9r/Wi5sKhNv8mSo4tY4x7qq9o0nwd+TwI0Ss7I7xMw0gvw/DKb8UtryxpXg9yI883PPtUh5gyvh7zMyssF5ZmhCDn9JGuEEP6AMFBXGwQwygcEuUWjGanD7aluss10iJWEVZVVyFfxyRjaxfLPhjpZSEgv7nolJuOTupAA9Qe5IfyG58bcuPzA25mcVKXGK2srmgOEP/fqvyxXGByAMmh0PStyD9WlNAL26RjnKi61lY0ajGC51iziA2FENZPKzZFl60w0styBJVfQtwpUXxjc4OiAPu08AEZzggxYonh86oU5WtFPPIf363/N2wGcZk2eadYiA5CIx+Hf66qvE5Jjg1jdExQjfXV1yolRMvT5Q6M9HIAEB8LilB0VHcJhWeXJt3Y7ICGwITD5ALJC2J+nif8XYkqATISi+8xL2Bi0Pngw9AKCVur5P0KVWvVotqaJGRVJae5uRbXEGrWiiwhK9+nZCeqzggvt2Ckl6OAyCA3r/DmdbQVfj/Iz6vACd3tMbk4qovMKZhghvbb3SigePsMleR8BoSkxFRUpERFXs6bhUskbC2TkLRGJxEHqo5H8nSoOj4HAZK7Q9HxRuhqJJfbMNLLE6gNRogNoiMMRgkGJEh+UBXgMiqQHuB5fW5WCJNJMYEKRFFyOjz/mMfY6ZGdSlEp7XlFVP8fVx1VchOS84M4qyRErdUiA50RobJqDVvZGAbZeZKrdbXlDUqCvG/ITxjp5TkgKzx/5P2oAlMMgRRpi2MYAgUSFCCLzQmbqR5DnkFITWUZQkUVZhvxodooMpSWeAUXFBwgQu1zLfF9roSkDZXNMRtJs9pIGkOtai3BcgIxGgoHRnoFAAhM/1DhDUhMH5dF9S0+nwLDQATa43ijQEI+0IfN0/I2oTnCbAqHy0tCotB8aBpUUFFukFx1Wb0WG3geZac+Od40rI29r2/WEVFoMNIrcEBihLuovUV5nF+a05AXdUjhhOdRfjxHcYSvXRQyDMzSVJb5mMoxXx+EwwH4XoiT74sHoSekQ74MNbZebRXJx2USlpbL5yuF3ALCouhAkYGPaefy30/xoUJDWIiQ+XQUGyA7Pk94azAEMNIzqBLUR/7I6cAJgQp8Hs7Kc0GoyxIkSGwZa4wAsuNjiA+C5G+JB+SIioQ040FxAXKCmBKRXrGEqRAXnyP/Figzqqs1ZXX6eSXO4jWlRscDXxOAXJ9VVw3rYaRn2BIgPl8B9tCK8CpDEjaYDyiESqV4GRUYB4gIoqOKCnnFFyAAYWdAYCi6tWKFNw0bkRm2CyM9ww6xifKGfsH6r4qR1ia4ywjOkEwY6RkMhoKCla4MBkNBwUjPYDAUFIz0DAZDQcFIz2AwFBSM9AwGQ0HBSM9gMBQUjPQMBkMBwbn/HzyzlOR+xh20AAAAAElFTkSuQmCC;" vertex="1" parent="1">
          <mxGeometry x="567.25" y="156.29" width="60.75" height="61.71" as="geometry" />
        </mxCell>
        <mxCell id="amleVEFkV1cWmTi2RPjT-2" value="" style="shape=image;verticalLabelPosition=bottom;labelBackgroundColor=default;verticalAlign=top;aspect=fixed;imageAspect=0;image=data:image/png,iVBORw0KGgoAAAANSUhEUgAAAT0AAAFCCAYAAACD7wqJAAAAAXNSR0IArs4c6QAAAARnQU1BAACxjwv8YQUAAAAJcEhZcwAADsMAAA7DAcdvqGQAAGjOSURBVHhe7b1nc1xpkqX5QiOgA1oQoNZkUqVgVmZVVmXJruru6RmbnjFr251Psz9qd83W9svOju3OrE13T3VPV2VVVqUWzKTWGiS0CGgREFx//I1LBMEACRE6/DCRAQQAErhx77nH3Y+7Fz0TOIPBYCgQFMceDQaDoSBgpGcwGAoKRnoGg6GgYKRnMBgKCkZ6BoOhoGCkZzAYCgpGegaDoaBgpGcwGAoKZk42bBvPnq06/qysrriVZ8uxZ2OQ02rl2YpbWll0q/K4EYqLSlxJcakrKSp1xcUlsWc9il2RfK5Mvkbe403+GAw7hZGeQfGMP3IqQFD+bVWJC1JTcuPj2NfxeYiOz0aF1KLL825pdVE/H4C/C8KbWZp0yyvR2LPrUeTKSspdRUnIlZdWulIhuHhAiGUlla5SPg8xgqKiIvm6ciVA3i8SavSkKO8JcQZfp8/JH4NhPYz0CggBsQXvQ2rB+yi15ZUlt7gy7xaXZ4XMom51VZ5bjbqoENoSHwvx8TFktriyoN/P4+LynJDei8TG38nXzUYn9HsTwRNYmasorXLlQmwvk16xKyuucKGyGiEzVCDEVuyqy+tVGfL1kGa5ECMEGSqtdpVl1fp+hT5XGiNGT368z9+hf/R9QyHCSK9AgFoj3OQNsoKkVoXoePmXVpeE8ISglqbd1MKYG18YdHPRGSGrBTcvBDgTjbj5pRm3IOTGY/B+JgChNYbahCirhQyrXY0QYG1FWMmxvrLJNVS2KInyHAqyVEixVNWfV4gaRkOm8ryhMGGkl9cgFPUvL+HnbHTSReZH3OQCb2NuenHMTS1G5P1RJTeUGWS4IiRICMupoaGsvAUhrw91Y+FvRuDVIcTl33xOEPVG/g+CI+TluZryBiXCuopGV1Vepx/XycfhylbXUr3rORkG4O8z5D+M9PIIhJSrqytCYDOizibdzOKEqrRpITY+hvRml6bcwtKsV2zydfO8L4/k3ZTU5E++AKVHuFspyq+iVN4n/JW3qrJaVYKoxGohw5B8HCqtUYKEGPlayNSQnzDSy1GgtpYJS+WNUJNiAvm4OSGz6cVxNyFqbkJUnT7KGwTI5yHF4Ps9ya0VKfINKL4gdxeoQs3vyXMl8j7EhwqsiRFgU1WHhMetXhmW1bhyIctKIUByhoTGpgTzA0Z6OQJeJiqpSlary0p0KLi5pWk3PPvEjc0NSOg65MbmB0XJCQmuLGi4SqhKeAo58r2GNRAmB3YZXxSpVJKD9Jol/IUECYMbQ+2xHGGFEqe+FccI1JBzMNLLAUBaKDlC1HEhtZHZp/LWJwpuWKupFB0IW+ei01pJpRLr1VssWJWXOJ/C1mThOWnFKrz8gdAIb8kBEgrXigKsqWiQx7ALV7W7cGWLEGKn5gUpmBhyD0Z6WQgICoU2LSHplISqKDofsg5rAWJ8btBFJGRF5QWFBZTciijAIGQ1bA+e+CiEUCwpiSnACrXDEAaHQ62iACG/VlctZFhVWqPPV5dBklWqHA3ZDSO9LAAkR66NnBthKWoNVUfIOjzzRNTdkJIfRYnoMjaSGfmaeSU6Q+qhJFgUI78yXwjBK4gCrCuXULiq0zUKEdZqLrBaFSC+Q2wxkKghu2CklzFgCI6ptJWoWkbIyU0sjPrcnBDexPywEh5Kb0E+bySXHaBAggKsLKtSAsQbiAKsl8eGymZ5v01JkNyg5g1j3kBa6QyZh5FeRiDKTghvNjqluTgMwWMSsg7NPHLDs09F3T1V4iM3p7k4y8llJVTFxfKBkJsSYKjFtdfsdh21e11rdberrWx8Xg3GQG3El3kY6aUR5NzoVV2Q8HQ6OuFG5/rd0PRjIbtefT+wlRDiov6M6HIHWGN8Fbhc+4jx/UF2rTW73N7wCa0CUwGmOOItMN5gbUg/jPRSCNVncnh9oSEqym5ayK3PDUw9cIMzj93k4qiGs9ML3npC8cKILj+AoisXZUfej5wf9pcmeWyp7or5AVue9wnjGTSkD0Z6KQRER8fDjKi6yPyw5un6pu67p1N3VN2h+qi+GvIfDE2g4tta0+Paa3drCNwsBAj50QViqi99MNJLAdRGIn8IVwemH7r741fcndHv3eD0Iy1YGAoX5P+o7jZWtbl9jSfdybb33J6GYxLyeuOz5fxSDyO9JAMrCV0Rjyduur7Je6LoHmsF9nkbmHVFFDxQdVhaaH2j8NFc1eX2hI+57vpDrrV6l5meUwwjvR2CHBwDNZkbRzFiWMJW2sIGRNVRkcVuEhWyo6vCQllDAIjPm5/LXVV5rWup2uXaJPT1b90uHPKWF7pD8gUU6Ej3MPGH8WD8/pmAkd42AYExholpJZOLY2oifjJ52/VPPVC7CYUJbyDGdmJkZ0gMwl26OLzxGc9fs2uv2eO66g9o3q9JyI9JMPQF53LeD4sWgy9G5DphmvaJ1h9olVttP2mGkd4WgbILuieYQzc488g9jtxy/dMPtC+WMJZhABbGGrYKlA+5PQakNld1qOrbVX/Q9TQc0SJI0OaWa/tCuGboJEIUPBi/qiLhZ/v/TpVsJtr2jPS2AF48/HPj88NaoOifvifK7qEbkrsXgzmZakIBw8JYw3YBmUFq+Piqy+q1s6Orbr+GvF11B3TYQVVZnX4+V4DKG5l94m4Mf+Puj1/WCOgXB/8n/b1Qt+kmcCO9TQAS07HpouIiCxDeA/dUixS92iqmU4cl1DWyMyQLEIEPeyu1m4PWNgodu4T4sL2QE6MPmMEI2az6oBd2rOBeuDL4ieuduK2/17vdv3ZHWt5WUk+3T9FIb0P4VjH6XcnPMc6J4gS2EwoVTDrBf7cost1ydoZUAlIj5A2HWp4rvu76w6r6GHlFtTdb831cPxTzLg58LKT3mVw/jzVMP9xyzp0X4iN8LytO774SI70E8BVZP5GYF0zzdhO3RN3d1b7YuaUpU3aGjID+XlrayPN1C2F01O7TDg/UYDbm+hiUQQroQt/v3M2Rb7XIh12HzhRC3MPN57Q1L50wJ2QC0CPLLLv+6YfyQn3jvnn6L+67vo/c3bFLmruj9G6EZ8gEiDq4+X7f/0f37dPfu+tDX7i+qXvqIsjGNsaF5Xk3IKIBryrXDdHT4spcLDU0qp/nuXTClF4MnCwQGS8AhuKHkevuwfg1PcGmo+Oq+iBDgyHz8INO8fDRwkaV91DzWbcvfFJzZAw8zURVdD2Ihugz/7L3t+7WyAXtNSfcRY2ymvO9nr9ypzs+0IJGOg3ZRnoxUHllOvHTqfvuUeSGlte5GxHe6q7YLLuDGgwAmwuhLSEveb494eMa9lL4yPQQU9QdBYyvn/yzqlGqtogLfiZI+WjLW0J6P3aHW95U+0q6UPDhLcqO0IDiBC/Qhb7fu8uDn6rSw0zJTDsjPEO2Aj8ocxnJOV8a+LO8/UlzZ31TEqHITTxTg2fRUhT7EA+Qn+bAY9cRj1x3dCzhbSXsTScKlvQ48Cg47j7chb7v/9h91vuP7vbod5psXVqJxr7SYMhueBJZUTfB3bGL7qsnv3Vf9P53d2/siq4Z4HMB4aQLEBmOB9JD/FzB6tEA/EzBelKfI0/fz1eQ4W3gu+NO80gU3f3xq+q94wVgPwWHJN0nicGwc5DrK1JvX20s10e4u7/xpFpDyJulOtzl2ll+tqQ5PFQn0ROTwRNdT+wd8daVv3AHm89oLjId/bgFp/QoRrBJDLK7NvS5uypvvM+sOwgP2W2EZ8hN+LAR5USr15PJO0I+3+o5DgmNzfZ7VZWi85u/d0UIj3CbcWpMGZpnY98G/97qM1wSEV1nyvekq1BYMKSHnMYzNDLXp/1/WFE4IZDfVJU4GThhDIZcB5EMhTnCStolb2s3xKfu9tj3OrF7NjqZEoIJIigmDfVP3dfupaWVjXOKkOHc0qROE5/RgqGRXtKghLckhDfzxN0c/kbvfLdHvlMfXqpOAIMh0+Amjq8PErozetFd7P9Yzv+vdXo3hMh5nyzVx98D0bKX+WHkmvflabXWC4lglNb6IalzSzNudHZAc4/k0ZP187wKeU963H3YIftk6p67MvSFEt6Dsas6+86/KBbKGvIb2goWjWiEw/lPWudB5GqsYLeYlGuAmZJcZ7RpQrBUjr3Vi0xjkQ4WYGgqLWjxoJCI4T+yMKSbARnokWrkLenxQvJicwd5OH7NXR74s7zYX2jBgnleybzLGQzZDm7+XA/Mfbw5/K37vu9jd0fCXfJp2s0RI6jtQlNH8ncxMZxrDEEBUHbMCqSo0t1wWJckxQM1qt8706fkt7iSevtKXpJeEM5SnCCfcX34S3dv7JJ68eaitnXMULigs4jr4tHEDREBXBcX1YRPwYHrZjvg+6YWx9T61TtxSxVbQKKMwKqrbHLddQfdnoaj2nPrx2IFVWQvTsirExoHZJlK5B3pQWa8sBQsbo9c0B7FW6Pf6cfJkvIGQy6DggFVUyqsEB+2EiZ+E55ulfh83nAmNjn8jhZK4l1wFSUh11Gzx+0OH3O7hPh0AXpFWK01AfzPM6EhMcN5U428Iz3CViYa3xu95D5++F/cXXlBmXlnxQqDYQ2QG2HtvbHL2ibGUI0notK2Kgy4rhgXhXJkGhF/ZwCKF/QG72865XoktG2t6dZZgMwEjO8NRumRX5wU0sNFkWrkDemRsyA3QBIVN/rXT/+Hkh9GSYPBkBg+NB1398euuM97f6sdSVw3m8nxQXgzS0wjuu8YqsvUlHgw8mp/E8boAzr3jyJGdVmthrtFcdRDtwYuiin5d6kqs0grlcgL0uOFI49AZ8X14S9UrtMCw7LtAmw4MRg2DVSdWk0wM0/cdhf6/qD+VWwuVFZfhdmlSc3h0ac+OtsnX//iTufGULvu9GXTW3lJpXaE1Fc268rL+GnJ/AxaYZaQm37dqYXx2GdSg5wmPQ4Wcjgi4SsN11cHP9eZdyRqOYgGg+H14DqiuIfKQuldkeuIR4zNDMxNpPogRKq1XG9Bf228RYUNboSz7bV7XQ05vOISreLWVjRqMaNOyI+P49vipuXvGJnrV1NzKpGzpBe8UJggabL+9unv9A4VtNoYDIbNQ6+nZ8taxcXPd2ngE/X0YWReWJrR9FEAvpbpKNhT2HlBby1RFfBjo8q0aEHurl5C2ZIiP9GZPxWi+MKhVrc3fEz7g4viChozi5Oq9Aiv+TdShZwkPV6AqEhyKkXXh77UkToPxpkowcE3hWcw7AQLyzM6SJc00Y3hr7QqS2UXuiOVhDsCLx6hbTAlhSoupIZ6I4RlRl53wxEdbx8/RKBIFB/j4Slo+E1oaxRELo8KLiQK0aaqLTTnSI8DQX8f3iKaqG+PXohNN55QwkvlHcJgKAToNSakQ08s46kgP4gPHx3XWJ9cbw/Gr+vuCwoQgc1FPXkSvh5oOuV2NxzVjW2l65b+FMsfSK+zdp+GwPELjVCLtM1RxeV6Dv7eZCOnSI9wloMM4d0bvSik941WjfD4mCXFYEgeIJxguC4ta3fHvldbyvDsU833kUP3AwW8xYXCRIgJzjW73BFReeTtqNau39IWjLkn34edBVJEIQLIllwhao+8fKqu6ZwhPQ6smiBne939scvaZcGBJ4EaNDUbDIbkIVB8rD7FCkahkHD3pkRYLO9eep47Z0Vlle7nYDfvvvAJV11W99JwARC0pdVXNKt1BaKMD399FXdCyTXIEyYbOUF6OphwZUnYv19tKYyFehC55qLLVrAwGFINWjrJn98Y/sZ91ftPms+DDIOcG+qNPB4h7aGmM/r+ZvZzNIc6fAgsXxsA0iPEpaEgVemqrCc9fmlaU+jruzH8tY6GoqKE9LX8ncGQenCdMf1kfmnKTWD4jxsBhUqjrayzbr8qvK66gzHltjHh8Zni4mItZhDmxk9eoSjC4AHGvqldJgXEl/Wkxy9NNQdbyr3xK3rH4U5gMBjSB4gHH54a/uNIiOIFKxwPNp12uyS0pTjxejDWvsQ1V4vSq+pQ43KAoDqMbWV0bkBTWvF2mWQgi0kPH96y3llIoJI8pYwe39tnMBgyB3JzeO7Ytxvs3N0sCH3rKppcg4TC5PVKikr1OeALGnNuYOqhFjU20xK3FWQt6fGLI28pl3/66L+5x5GbL5THDQZDZhGubHEn2n7g9jaecHWV4RdayzYDFB75v6ZQu4a4QeFjzYf7UPuCV5Ncxc060lMZLb8kc+9Yy8hGJdzfS6uLzxOnBoMhs8CSwvSUfY0nddF4eUko9pmtgUEEnXX7XIMoRj9nL5ZDlDCabYWpiOyyivT4ZfH9QHLXh7/StrK+qRcrRQaDITMg/MRXB8kdaDrtDjef0wIGebz4UVFbASPk26p7tBhSGvs7UHrwAN0edIKg+uLziDtFVpEeVSFc3/TzXRn6VKu0hLSUrg0GQ+aghFdSriS1L3zcHRLC62k4qn67MlFor7OnbITKsmoXrmpTozI5Quwva9HelBYxIT4KmsiiZCBrSA92h+D6px+4O2MXlfhYZmI5PIMh0/BDBDAcs+viYPNZt7vhiGuobImps+0RHoDoILw6UXqh0lr9d4BGfUJ0qD0GjNKpkawpcVlBevyCsHmfEB6japjmCgGyYclgMGQWEBvE1F67xx1qOSeEd0x7bNe3mG0HQcjMqKlqUZFlcb26CB7a0ZiNiVc3WSFuxklPfTlLs2o+xov3KHJd2d333SUvjjcYDNtDZWmNEF6PhLRn3PHW82ozgZzi91zsBKUlZWp3wf6yfkUk/b349cjr5UV4S3sZspVpDkxffRS5oaxOT18yE5cGg2HrwEKCraSxqs111x92e8MntOhQXloZs5ckifQkpKUdrSHUrMMI4sGMvQkhPoqZyerCyijpsb9C99IK4T2MXNWNSmY+NhgyD8JO1FxYyIj8HS1m7TW7tUq73aLFRigtKtP8IGZlBhfE//3M2JtZnNCCBiFuMlwcGSU9bWSefqRLuBkRZe1lBkN2AHKDhI62vOXOdPzY7Qkfd1WbajHbOvi3sKzw74UklF5vf2Hh1+hcvxDfuDo8doqMkR5SlcGEVwY/1Vn89NtZpdZgyA7gxTvX9aE72/kT3XMRKqtOusKLB383o+UpljRXd8We9SD6Y67fVFRILwnbDdNOeuTxSEr2Tt7WwkUvo6glbveFC4PBkGnsCR9zpzs+cEdb31ESqlo38y5VYLQ8RRJ2Z8SDsJZdOHRpJYMn0kp62lO3yuiYUR1GiDWFvRYsJLHChcGQOQQ5PHbVnmr/kZDej3WkO4WMZFhTNgPyedhWGEAQD0QSoS29+MmYsZdW0vNTUcfdU1F3DAOlcPG63ZoGgyG1gPCooNL8f77712pNoWLrx72/ejZeMkEITYiLJzD+3ySPh2+X3bykwXbq300b6SFL1YA89cBdGvyzjpteXCGPZz21BkOmgJJrru5U0/Hb3b90xySkRe3Fm4TThfLiSt+dIcTnlwb5kBplxwCCGVF7DBhlW9tOkDbSY4MZHrzHkRvaYjYr8bknPAtrDYZ0I/DgQXB7w8fdsZZ33NGWt7WIwLayYMxTOsFCcEJcJq+g+OLziKTAUHr05qP2doI0/GawND10w+7p1F1dEExOzzcQGwyGdIMcXWVJSAlvT8NRd7DprDvQ9IZrr9nzPKRNZaV2I/BvlpdUqH2Fny2YugJWJaSF8OAOBozuBCknPdQcCUhm3j8UlcdAgWQ5qw0Gw9bgFV5ITcf7G0+6Iy1vuf1CeC3VPdoNkQmyi0dZcYX29dL5EczXA0xPntTwdszNL83uiD9SSnoQ3sLyvOufeiBh7XU1IuvMeyM8gyEjwBbCpBSI7mjrebdbQlvGQ5VKaJkNYOoKwwfaanbLz7SWV8T5gXialhCXJoadWFdSSnpMO2aVGyEtHRckIfnhDQZD+hBUZ7GD0FL2RvsP3ZmOn2hoW1fRoA3/8dXSTIJdGSEJsSlmBPP1AEKJlBj5PMhvJ+2qKSS9Z242OuUeT95yj4T0GBFj9hSDIb2ANFQ9iZo72HTGnWx7XxTe27qU208rfv1+2nSiqMiPmsIQzYw9ii3Bzwfx0ZJGH+70YkSf2w5SRnoYClnOfXf0ooa3FtYaDOkFi3pCEs5Skd3XeMK9s+uXusins3bvS9NMsglaaJGfj2JGVdmadQUQ2kYkemT83HaRMtIbnxtUawprG2FlfDYGgyE9oGDBgADC2be7fu5+su9v3aHms6qe4kkkGxEUW5qqulyNhN/xAwggPVrScINsFykhveXVZe2pZX0jPyAeG4PBkB6Qv6MCeqDplDvd/iP137G9TEPZWI4sm4HSg/Q66/Y6dnLEY3F5QcfR0Za2XST1CBC+4sljasqTydtueLZXx0dZ8cJgSA8w9TIw4GTbexLKvqc7aZuqO/ycuiRNOk41yOGRh8S2QodGUMwAFDPw6c0uTfmFQduYzJRU0qOMTPEChfd08q6+byrPYEglijRcrRBlxCDOPQ3HtTp7ruunWrhoDLULgawVA3IBvphR6hpCLar0IMBAoQbCSsPcuYFtzddLGumh5hgBQ6vZ7dELbnD6cWyuvcFgSBVKhAzooqBYAdkx/47+2Z76I6r6lDByiPA8PJFTuSWnh9XGG5X97wGvTEt4Ozrbt61aQdJIL7qyoMx7f/yKEt/8Mgu6bSiowZAq0LLVxLCA5rOq7E61v6+hbbiyVUki98juZdRWNOrvo9aV2K+zKtHjnPDL8FyfW8oU6RFXz0QnXP/UQx0MyhgYIzyDIflAAaHsaCPbVX/IHWo6qzYUcniddfuVJFjKnSv5u9fBDx9oUYIPSJxCacbDW0zH4/PDbmD6geubum9hrcGQAmDdoI2suapTJ6OcaHtXCW9/4xvaWhaEgfmg8AC/B5OU2ZRGT24Q3qL0FpZm1BkC12zV/5sU0puJRnQg6OBMr6k8gyHJ4OLHaEwlM+ibpTJLDu9A02k18eYjKF40hFrl96MYs6b06OlfXFlwEwujOrJuq324OyY9CC4yP+KeTN7VCSoGgyF58J61SlcvFz8byc50/tid7/6NhLPvChl0Chmkf9hnOhEqrdaBovyehPYB8bFrZ3nFT2KnNW0rtrgdkR4MS7fF6OxTNzbXp/spDQbDzhEYdMln7Q4fdR/u+1v3oz3/2h1vfVeNxrSRof7yJZTdCKi9CiE+7DjsziiOdWdAchRP6fhi3NRWJrDviPQoFw/KP4rCiywMb6t8bDAY1gDZQWisYDxMVbbzQ/fWrl9ooWJv+JhrlFAP5RfktwoBFSjdymbdoQHRA/J45PbYh4va24ofeNukR1jLEAFMyAwUMJVnMGwfQVUWZddZu18U3Xn3Tvev3Hu7/1qI76ea28q2iSjpgp8S06hdJfHdGai9ifkRdY5sJa+3bdLzFdtBkZe9WkUhrjYYDNsDVVksKCi7n+7/90p2FCkYqJlPFdntAGVbV9GkSo89GsCHt4vah4v42ko72rZJbzoaiU1R6VXCW31mY6MMhq0A1UKeCkMxqu5dChTt77ndDUc1nEP5lRatTRgpVPgxU+1KfMGWNh/eMkJ+VOfrYWHZ7E7cbZEeCcTI3JB68hjxsqS+PCM9g+F1QLGRs8NrRzWWljGWaxPO7m86qct5airCGtJptTJPTMY7Ab3DtNQFIS7TlQEExyRlBNi0hLhaU9iE+Noy6fEPUbEdmn2iU1T8UAHz5RkMGwFTMaqNScUs0e6o3auhK2T3ZtfP3PG2866z7sDzCmUhVGW3Ao4fxwXrSqhUjo/24Xqg9vAGTy2OifiKKj+9DlskPfkrJZZm9DvbzcZF7aHytuKRMRgKA0JbotJQa3RKsOjmQOMpITqGAnyofjtC2UPN51TdMR6drzW8DG4AxaLuUHnk9+KHigL2ZQSDivHvvQ6bJj0YFEVHAYN5ecMzj3Xxj8FgeBFqO4nZLBiESX/sG+3vK9m92fVz7aTY03BMlZ2fHmLYDIrlDyovsK0EoA+XvB5pt+QqPWFQEoWRhRFfsZ0b3PQ/YjDkO1Bp5Opo+KdTYlf9QSU7to4RwtIjS79sS3W3q69ocpVl1QVfld0KOL4cW3J7pAriQfWWvB6DCJBnr8OmSU932C7Nub7Juzo6ismlO9k9aTDkMnzIVaLKg6IDIWyrEBrN/wwCON3xgYawnuxOaHjLWkPtpJDwzMhua6B4EQ61urCoY24Y8SC8ZRF4dGVeeep12DTp4XgmYXhv/LLm9FB9BkMhAsIKkusNQmSt1T1qM2EXxZtdP1XrCZvHaBmjaKH+sjhTrWHrKCku0aXktZWNOiU6Hljm6MqA/NS28hri2wLprai6ezJx200ujpnKMxQkUHcoOyqxXXX73dnOn7pfHfyf3V8d+Y/ux/v+VomvtabbVaxTI4adQXS1KLwqXQlZXkob3ouAn+aXZtXC8rqWtE2RHtNJSRQOTj9a88MYDAUCSI6hnYSuqLhfHfwP7i8P/y/ul0J2kB5+O7+jtXbNX2fha1Lh92aU686M2vJGUc+1sc94LK8sihgbVbX3OkG2KdLzLWcD7snkHX1/M2VhgyEX4SuvfslOT/1hd6TlTfXTnev6mb6d7frQner4kTvW9o7bF8ZM3COqryFGdhbCphIcXzoyyIv6oQtr8MLMj5l6nW/4ta8SBDe/NO1GZvtc39Q9y+UZ8gYoMi4eFBotTqg5ihE6hr35rDvT+RP3g56/ch/s+Tfy+Bv12LFwhw1jVWqSLdU3U3bpgyc+ikcvzhEk+vR5vdcPFS0SUnulbINBUXiX+v/kvn76PzRmNjOyIR9AxVXHkVe1u6ZQh1ZX8daxl6GqvFaJraq8TokRYjMll3k8nbznrg9/4a4Mfqa8FIAbV1fdAfdO9y/VKsRUmo3wWtJjQN+9sUvu0uCf3dXBz7Xtw2DIBZADonLKmHUe+RhXP90PPNaU1SupkSdC6eED4+sIoZTkikt8S5iQnddxpuYyjbG5Qfdg/Iq7OvS5uzTw59izTl8ziO793f9KO13obd4IryQ9jMf9U/eFWb9y14a+cI8iN2KfMRjSD7xa5M70fSWkMn0kyc3iGEJNJbaYpYENWqg5GtWxl2BqraSHs6xO+zhRcFwsbA/jfd74N6zJP3vB7LxeUXhXBj91Xzz+x9izFDqKVe29v+dfqSG8vWb3hsr8FaRH29mquzv6vbs48Cd3e+SCzs0zGDaCtgdtQBjkvDgx+bNeMAWhY3xeTNVV8PUxQHgoM0CbV0VJlSg2ejFLtBEd9cZOhRohOVBWUqZfw3NlpRVCaj4BDhlCgP6iMILLJdAFhhC7LKT3h/v/OfasB6/t+Z5fa7vfLgl1+TgRNiQ9nM38A5cHP3Hf9X0kkvKafmzIR/gL//nlHyOuxHSwweeEQEJKJImb5nm+XD5P61UQLCrk34K4IDGaygN4xVYhKswrOwBZ4dMCkBZ3dsJRuiIgPZ3EIc8xmsmQn6CeMDz7RELbT9xvb/8fPOM/IeCmSCfM2Y4fu93hY5rWSIQNSY/pKRMLI6ryLkvs/HTqnllV8hDqfyoqVxbzDd2+IgkgnvUkVqohpBCXqqQ1oMooAGAnSER8nJAUCV5Ucz4sRb0RcvK9AbhLB6QWwKtF/3cXy/diWA3UmipFeeNxI+I15AfoCKO+8I+3//cXOjA4X4+1vq2Wov2Np3RfbiJsSHrMyXsYuSaE94m7N35JE4iG3IEnCAjGP0IE+pz8CUZuAwisRsiKR9QTJMP2KUJV/7EPGwNyQW0RLq53xfP3Qmwb5cRU6a1rH+LLeJ6TldxaQLaA57EmxM9OMxgAYox02+/u/V9uYn5YHSaAc5ihDkyxOdzypub1EmFD0lOV1/8nLQ0PTD/Q8S2G3AAEFeSvUEQ+iQ+ZVUnIGIoRm59ASz6MZD/kQojJ10FoSlLFfEzeLFBvEFuZ/r0b5UsMhlSD2XmPItfd573/qMXVgJu4aWJbYcjD8dZ3XHf9YX1+PRKSHlXb0dk+99njf3DXhj53EWFTMyVnJ7xSQhEJgcn75MUgKjxnWDF4PlzZqh9jy6ivaHzuRzPiMuQiiEJZVXFp4GMVZSwHAlwL9D0fa3lHbSu0DSZCQtIjn8cu2z8//P/crZFv3Ex0MvYZQzaBF5nQtLm6XbsE8CkxiYJl0MFiGUCuy4ePPhenJCnfy/MGQ65hI9LzeeUGd1RU3tnOn+jwh0RISHrEyYyQ+vrJP7vHE7e1n82QWaDYCD0xXeI7q6lo0MJBXWWjqy6r1xAV0y15Nd5ng1R8NZQTgrybf9/n9gyGXARDBQZnHkkU+qX79unvNBUHgrwyI/jf3vULreQmQkLSg0W94/lP2nPrt50Z0glIjpI7+TTIjlAV9cbme0JUbBnedFuryi14AzzGk5zBkE9YXJ5zo3P97s7oRffnR/9Vp7gHoKJ/oOkN99auX7pzXT/VYhjPxiNhfMOAARZ5zyxOWdtZWuCrq9ylguZ3FN2+xhMq0ZHq7EU93/1rd7LtPXlRz7jd9Ud0Gm+jhLSQH98XFBj4u4zwDPmKYhEEFOIQAaVFL1b3n7lVFWlEp5BjoiptQtIjh0chY2F5ZlPjlw07g6+2VmrBwZfc35c71S8cS2TYr8BooyMtb+nn2mp6dGw23jav7IzcDIUFbupEPywALy152dLEEFEaKTYag/cS6S2uzLu5pSktA+N/sYkqqYMSXajN9TQc1mXPzGpjZhuEx3BKSA6vEctQ1o/INhgKFYgERkthyyKcXQ8WBC0szeqk9/iOjQAvfAcEx4RkhvFFl22fbSpAFZV8XGv1rtjGrDM6p+3NXSi6H2qZnb0KhK0UJJDxiTojDIZMwW9ATBQ4pgekboqdN69jltee7zhgr5uX8HYuOvVqpccvQijLUIGJhdHnLmfDTiEvkdyZguprY1WH29tw3J1of8+d6fjAner4oTsmKo9F0J11+zV0xWpieTlDtgECgSNWV1fkMcPEJ5cG1wjGeyKmePsVQ0TJ50F8iVbUrn2lfI4xyxPzI25qcUwnkRp2CgoUxa68uEJtJSi4Iy3nJIT90L3f89fu3Z6/dMfbfqDPo+iM5AzZCqK+IFcGT/BxIhWVPngxQTQE8cWrPZTeovycfkDKq0gvBpZr0OZh2852Bu5CFBp4QZqqO3XXws8P/J37yb5/p8qOXB7VWiM6Qy5AKE6nptPs/0xIj5t5vLrKFPzP8eI1hGDDgTKzOJGQmF/6qVF6mP3Mm7d9cDIQyrIL9a2un7sPheje2/3Xbk/4mC6cIXwl3DXCM+QKsK4RMhIF6uKddUSTbnDtcA1xPTFuLD7nzc+3tBJV8kukRZX0iHv5gploRFs6/EYhU3rbAWTHAEOqsac7fuROdXwgyu4dIcAjajC2goQh10AeDxFEJwRRYFZ4d4VzUXlcb+sjphXCWyFo30m2gdLjl0K6Ds306i9m3rytAXmtVdnyBrer/oCaiRlbzVwvPmZWnCc7U3aG3AM5sjnhBfy78ER28IPP6VG9Vb9qnPIMqrf06CYi6BjpiXRdmdN2DpuOvDVw4BmE2VTVqUbiD/f9e7We4K/ToZrrKksGQ65hUQhkemFM/bveWZD585kmS6679to9GuKut60AH8EuvUTSPryVJ6PLCzpCCnOy+fM2B6Q15EYHxdvdv3Qn5bFHwth6eRF0Bp0O6zR1Z8htoJgiC8MiiBZ1Xp1aRDJ9Xouyg+joPSe8XX+dIeTgtOnFCQ134/E8vKXES78tsbCFtxuDF5tQlpl0nXX7dCk0k1rJ2/ExIS4vAuFsxk8Mg2EHgAcIZ/HtTlLAWF32rV9y/mcaXFmklYik/ICNF681qrbLz5YT1ieeKz361CLzQ/qYWf9N9kIJr6RcG5176g+rDYWBAPsbT7q26p5Y7s5CWUN+ALKYFMKLLAxprj8oHGTLOc71SCtaqYS56wUGoW1gUk4Y3vIkHRhTixGVsEwqMLwM7igM7cSKwkjqE60/cHsbj+uSaMrnBkM+YXllSQePYGMDVeW1+pgdEJoT8mXwBuH2emh4K9ErBZj1nuNiVB5fsLy6KLH75Evxr0EOUix3wCino6LuTnd+IGHtGddSs0vktZ9ObDDkE4LQlnWLPJK2oViXbWA7XyLlyc+PgKOK+1J4i9NaGTE6rYyYqFetUEGegPwFYWt3/SF3ov0HQng/cXsajvlihdxhLJw15CMoaE5IWMsQ4ai8zzXQUNkc+2z2gLCW5VYv+199n3B0eV5FXTyKaR4mj8cYFiO8NXAwIbzairB2Umg4K2+8TxGDYgZfZTDkH565mcWI6596IMQ3rDd2QluinWwE1pXKshe7nChL0C6HoHspp7f8bEkrHMzPM9JbAwewpqzeddXtV/8dE1EoXjDXbn3S1GDIJ+Bto8f20cQNFUTVEtrqmtAEXrhsQEgIj4VAmtt7XsWlkOG5DWEXj2J+KVrPmKNn/rw1oOYONJ3SgZ775ZFFPAZDIWBk9qnrnbyjvl1mP7ZVdyup5BKCQsYkcwRWX5wjoIUM+m6J203peTCS/XDzOV0lR6W2WmQ9i7ENhkLAsJBe/9R9nVJCAaM+xJCM6thncwdqWxHyW2/BK+YT2FUWRPEVOueRw2uq6tDpxZCeFiwqmnQRicGQz4AHCGsnJeIbmHroR0jJ85z/geE+X1DsJxLMu/mlxFNGCwV48BpCzUp2mI5ReEwxthFQhkIAeS/y+o8mrrsnU3f1ffJ4LJAPicrLRR8qCo/faz2vFRP30lvH0L1CJj1e3ENNvqVsb/ikWlLMcGwoBJDiggcYOHKx/0+ub+qeVmxbq7tcs0Q+5aW5V7wLGi5mhddeMievCBPiZcHEJ7997OnCgLellGk/Ia1kTDSmoZryPN4fg6EQoGHt4qjrnbzleiduuemFcZ2mwgQT3S3L6KYsBq1ooTK/EnXNsuJnACLoXjIn03JGIYMetUJSehwccnV4jwhlDzad0e1kVGnjD57BkM+gyolHl1maDyPX3XQ0ou1dtbGF8yoAstSqEoCJRqxliDcow2UUMbxPb51lhbiXT8L2hQQOEHezlupdGtayY5akLS+wEZ6hUMB0JawphLRPJm8rD5Daaa3udg2Vrep9y/auI0SKn57MlL24axduo8tsffWWX5LluIWG0pJyfVEPNp12B+ijFfKzHJ6hkAAZ0G+Pyns6ec8NzzxVkthVv9/tCR9xdRXhmHrKLxFQjGOZYQOFBFrI6iubJKw97M52fqiTVw2GQoLmvOS6p7f2wfg1UXoPVCVh22JMGsNxCW3zMerRjgw2BxUSqNTixTve9q5rrGrXGXkGQyGBgQJ9U/eF8K64/ul7ovgm9DrAtsX1UUXbWZYXMLYLCW+jL1U38hXctfAeddbu1Wot5uNyubNZDs9QSCCsZc7c48gNVXkYkeEAinr7wie1gJEVI+FThIKZi6TSXe5kDBDYGz4hxLffsZLRlvYYCg1UNCfmh92TyTtucPqRTkWmGMAwXHyqrTU9sSlC+YmCueJ5UalKHWg87Q40nXYtNd1GeIaCxODMY3d1+Av3aOKWTiHhOgiV1qhftUOiINrO8rmoV8x00UKwqzBW+kDjG+rFYxhieXH+9BIaDJsBxQuU3f3xKxLa3nRTLPuRsJZ5dOTxGJRbxXCNPDfmaxtavpOe9+N1qRcPa0plWbXc3SyPZygU4MVd1jzew8g193D8qhud7XdLcu1jScGQ316zR036LM/O9xx3MWXr/N6LUaR3MQaAsqIR71E2rLAzGNIF+lDpuGJO3n21p9wXAmT7/zMtWDSF2t0uuTY6a/flbcU2HsXYVfK5eoubnLvYgaYzOjZKl3BbLs9QIAiGCUTmR9zdsYs6J48dtjyHnqssrXHhUJtrkkiI1QiFcG3Ib5iv/bZFKt3Dla1qUWmr6dYw14oXhkICk0awpNwdu+SuD3/tJhZGtOuC64DWraaqNo2AEASFgrxkALWniEzHk7c7fFReVOwpYZXu5skzFAroqWdZ96PITXdz+BtvT1meVfVHj3l1eZ1OUqFim42bzlKFvCQ9P0yg2rVUdepQUF7U8tL8NVsaDOtBHg//HfYUpqc8nripMzPJ3xPbaS5P1B3XBjm9XBwHv13kJelhQq6rDKs9hYECVG6zfTyOwZAs0HFBp9W4hLXMxxuYfqCFi2B0HHk7RjHtqjuoC+yzdbVjqpCXpEfZPVzZ5vaEj6s9xWAoJEB4k/Mj7vbod+7myLeq9uJBbrtJoiBEASOkQgV2jeQl6XmzZbPraTiie2oNhkIBYW1kYdhdG/7S3Rj+2o3O9ukE4XiEq9rcvsYTGtpCeH58VOEg70iPXAWld/IVLPYh1DUYCgEQ3sTCqHZboPD6JazVNRBx4PpoqepSldcYateCX66DrjJ8iFjvNjP9Pe9IT5cT1+zW3bW8oFa8MBQCuNgX5MJnz8XN0Quuf+qBbjmkUruGIiU6ro/mUIfm9fLBl0fBZnpxXMP6F0hPLv1EnVd5R3oNFU06SaW9Zq8RnqFA8ExU3ooQ3T33YOyK65u86+aiUy8RXokQ3KHms1rcY4G3J7zcv0b43ddvPAOBdW29NzdvSI9fEOnOi8m0iLrKxthnDIb8BSHtjBDco/HrmsPDmoI3Lz7Ug9woXqDwGCrQXN2ZZ7lufs8Xw1p+Z8zXVbol7cWJMcWMkCl2uZ/I5PdoDLVpvoK1dRCgwZDPgPBYyj04/VgLF/fGLmt/LWFuQHheDIR0QvjhlnOuvXa3qy5jKnL+jI7iOCjJxylb7TgpLnfVus1tHelBDvlwAOi2wF3O3YzuCwttDfkMvHjMwqM6+zBy1d0c+doNzDzSPa/xKw+5tpmPR8rneOu7Igw6dCx8Pl0fzA9YWJ53uuBMjgvg9+N39732L4q64orSapWBuQ4kbGtNt2ur7XY1FfWxZw2G/AOER08t46EeRK65O6Pfu/6phwl3V1dIWNscG6u2r/Gkq61oeIkEch1UqGcWJ14uZGyA4jJRSOvlX66Bn582mrqKJpXu+PQMhnwEoRzhK320t0a+ddeHvnS9k7djn42HT+LTU9tdf1D3wRSSH4/wlhFy8ML6SLYYGZjrAzUpvbOyjpyejY4y5CtQMTomamHI3Ru/5O6Mfef6p++rZWM9uAbqKpvcrroDOkuSDox8HJzLMUH5rgeLvyG9YNBIPPKCHSA9fHl49PLBbGkwJAKdFePzg7rBDJXXN3lfc3iJAOlh0N8dPqajo+i8yLc8N4QX7O1eT3vwOwovVFb1Ut99MZI31w8GiVk2OVGtgeENhnyD77YYcffHLrvv+z9yd0cvutmlxIRHaEeBsrV6lw4VwJCcf0DhrbrJ+VGtYL/oSQQBp73MbcVIYLwsuQzidnZ1ktOztjNDPgE1ww4bFN7lgU+F8D7WogUkuBFYbbq/6Q3dYYt9qzjPF/0kgvr0RARh13mpessdobQkd0NCVtfVC9lhRrZ8niGfoEWLJb/b4ru+j9SWMjTT+4IPbz3oO++uP+yONL/ldrHdrLw25yO5RODYkN8cne9304sT8vGaTScA4S2DUl8yJ5cWlWrCb32FIxfAi8kmJxb/kNfjd8jHF9hQeOCiVuPxzGMlu2tDX6jC47lEFzjAekZue3/jSbcnfEwLe/m66jRQwBPzI35W4Drl6wsZZRLF1ojSXUd6SF/mz9GWkmuEgWxlu5nfY8tkZIMh9+GNx3NuWBTendHvROX9UbsumHy8EeFx7bLMHpUH4TVXdeh1vb7vNN9A5ZoCz3rlS8QX8NpL4S1PEOJWCiNqySOHwC9GPpIiBqGtqTxDrgPFgvF4aOaRuzn8lbs69JmubCSU2yik5bwnytnTcFR312JPwZSc74QHUHncINbnOLHncExYXk40Gw85Kt7EWCnEl3ukUaSE1yB3uFK6SvLQh2QoHHDhzoqa6524qeEsk4+HZ56outuI8BAtvpDXJWHtGzoYlAs93wnPj8T3C8yZp0fAGw9fyKjQ9NdLPr0SDW8r9c6QW2DFY7Embili0JVhSs+Qq4DwZqITjr20N0e+kbD24vOixUbgfCePR077QNNp11V3wKd6clLAbB3P5GbAzEBtP4szKMMLJUVlamWD+Pg4HsWq8oTwKATkkmObn5R8ZLXc1aolxGVWmMGQe3imE0IoUAxMP3S3Ry64W/LG+4k6LeKBggmGCZxs/4FrrmaZfdVLF3k+gjQAM/QwJ/vQfy285biQ7kIBJxwiqqQnhEdpN9fuDvzshLX8koWQvzDkH1B4kBs5vNsj37krQ5+7J5N39EJ+HbiwWWLPUNCjLW8rARYE4cVuFItyjJgdyPGLz+nhRmHnNR7FRJxW7Jv1Y0ovR0gPgkPW80uRv8hFu43BgOViejGiy7i/7P0nd3nwEzUhvx6kdkp0diRkd7T1ndjzhQGOG8o4IseK99cDMUTVVqdHJVJ6HDxVTPh5ciS85W6GjKdKpUlbaz0z5BjUY0Zb2fgVd6Hv9/oYmR96aXNZIpCr6qzdp2S3N3zC1VUU1pTw1VWfy5taHE84Jl5JT1SwVrATCDkNb2lGJi+WM0pPSI4XHo8eSVuDIVdAaMbcO7osIDqt0o5cEMIbTqha1oOLmeX1TEE+3HzOtdbsKoiQNh6EsoT/kwtjGuauBx0YRK9VpYmjVyW92nJWJrbHphHkBvHxc1KhKbQX3JC7IPm+vBIVwuvTCu33/X+Ux2/d3PLGpuN4EJUxPOBI85vuSMtbSni557rYOVaF6OaXZmPhbTT27BrI8VPEIApMGN6SHysuKtX4l+Tf+j61bIQaD+Vn5ufVuN1gyHKsCKnhwWMX7Y3hr5TsGA1Fl0WieXCJgDBhAjL2lM7a/dp3nivRWTKBL49UwP3xa9qbvB7Po9cNirMqkyAR/CxsEssFjw8/H78Y0ySQ+8Lcsc8YDNkHCG9sbsDdHbuoxYo7Y9/r5OPZpckXqo4bgfM9JKqFbgsIj10wFB4LcXoK6YGl1UXtxCAnupwgvIXDEES8JbSs6P9E7fGF4coW34Ob5SEjJwGheGVZlZJftpO0oRDhd9GScMdkzKYyFB4ePAYHzEQnEybh4+HPcwZh1urI932Nb+gjhYtSIbxCPO9XVpc0J0onhvbcrrtpqEdPOAwVvGEhQ/8nBFJRWqntXOWqnHIgTyYMDuHxsxsM2QTUCC1S+MdG5vqU7K4Nfa7ENzT92M0q4b2+aMG5jaJj4dXx1vMS2h5zYSanaPGuMG/0hLZMi0bprQeqrhLCk2NGBLh+YnKAWHjrlR7tLJXyxWb0NRi2DxQcFyZdFVcGP3Pf9f1BQ9txLCmb3NgFcCgw8v1Iy5vuaOvbOigX420hgw4MvI1sP1sPVB2NFgwTRh1vBK/05A9SkIXAZXoXMRgMWwFERjjLRUn+7mHkmhDep+7C09/pbloUyvpQ7FVgLBLX457wUbWmcCFTtCv0/LX350XcdDQSe2YNWNmYn8fgVI7fRnhB6TGDC38LJGgwGDYHCI9wFXVH/u6OqDr8d+TvRuf63eLK/KYJT/N4xaVCeB1uf+MpIbw3XXvNnljBjuuysEmPAQzTi+PyNhl7Zg2Et+z1xYL3KitPjPSY1oDZl30ZtbpnwkJcg2Ez8ApvNsrAAHbRXnDXY2OhmHq8VZCnrq9oVmvK0Za3ROkdV+sFBY1CJzxuHORJ6cQgL7oecBYVWyYvId42gic9+VPsaEcrdzUV9Z749CAbDIZXATsK1cTh2V4d+PnN09+7u2OXtBF+q6BwwUV7oOmUO9n2nutpOKK2LAOEh1XFq2mUXsJChvxhERD8RQV3I7wk55pCnTpb30y/BsOrgcLDYPzZ439wH937T5rDm5gfStglsBnQXnay/T13pvPHblf9QR2bZvCg3Wx8fkC7MOaXZ2PPrkF9u+zLqWzRx9fm9BSinCnxhkOtOo2YLg2DwfAiyN/R9zk+N6Ah7Hf9f5Bw9iv3ZPKu9oJinN1sh0U82mt2u0PNZ7VS211/SMdE2fSgNdCXzBRp9oYkCm2JUunFRymzDOlV6bnnn9EQV74QpmSlYi6vhTQYkg3vvSO8mtRiBSHsxf4/uRvDX2t3xau2lG0Erjku1vrKJg1pqdKynJtEPMpFlYghduyjWhUfmxvUY70e1CQaKls1HfA67nqBDmHHcKhF30JMHbWDbjBoAh33/9TimHsqig6iuzTwZ3dj5BtRfINqU9ke4ZVp0p3dFocgPFF4RFlWRHwRjJKiaksBYyYacdHllwes4j6hN1mtPYzJewVeOrqY+4iJ8bv4Kq4Rn6GwMbc8o4MCrg1/KeHsH93Voc/d44mbbmYxogoEJbJVcG3RDLAvfNy90f5DzeGh8CykfRmkE9hvSwED8ks0TooaBCswKcR6lbwxXiI98nq4mesqm3U8C1XdbMMqcnclqpUcDshq3Hx8gyEZIC+HEXZ49ol7MHZF83ZXBnwrGbklej9Rd1snPCqMFa6lqlMV3rG287qn1vfTWh95IgT7Q8bnhxMOWeW4EZmqP6+EHSGv5qwEOrrIVZfVq1EZf1BWTnKQcGP52ZLKXewC28gbGwwJ8XxA5eKo65u+r8WK68Nf6dLtp5N3dKTRdsJZwMWIf4zWst1CdIeaz4jSO6lrDyBCi6peBjeV2aUp9TxOaaHo5co4NhXSBBiTOY6vmx2Q8LNIxNbqbmHOhg2bdjMJDgT9jchdloMYDDuHNxlHV+a1R/bh+DUNY7Gh3B69oAu38YZth+wAhKaTjCSk3d0ghNd0Rke9Q4BmPN4Y2umyOOHG5vqV/BJNpkGcMYiBijcFjdflRBOTnnwzkx2Q3NmYYyD0IJdC+PG68TwGw+vATRQyI180OjcgIewl983Tf3Ff9/6zvH/Fjc8NqfrbCbylotH1NBx2R1vfcvub3tDeWsOrwQiuMbkJYQdaWEqssHGctNXs1ukqm9mXk/AreIHI61HUQI5nG/FxkgaLVQhvDYbtgKosSXGm70J2DPeE7L59+nv3aOKGTjVelZvq1vN2L4KQq72mR9vKKFqg8GrKw5a/ew14fQanH2vFHJW3Ue6+IdQspNejpLeZsXgJv4JvpI0DKV5VRjUk28bZyGmouZdFbQMyGLYDvXHOj+hElO/7/yhk9zu1o1CppUjGubVTwgNUZo+1vuuOt70roe2R50ULw6tBfpUCxpPJ225OXo9EyXu1/ZQ36gBkJkRtJi+6IS0SGzO/C+Pkq1o6MgF+dQ7IkoQcnLgSnPhPGAybAOpuJjrhnk7d1V0VeO4gvVvD37rhmd6kRA/klZiMggI51no+RnhH1Udmg29fDW40vEYUKodmHusiJdILL96AfDMFqTg6MVB5vv6wE9ITdUeSlT5crCvZhMAsSpxPcnkzU2gNBs4bbpIMoGT94h8f/L/uD/f/s5Den9zITJ9+LhkgbKUVqrW6x/1wz792pySk7azd88rJH4Y1BHahh5HrWlRKlMdD0bGrm5sKu322koLbkPRKRd01V3W5ttrdWg7OxoIGd4O56LSGIv6E3XkoYsg/oBA4P4ZFMVwWVff7e//Jffro793jyA03tTCqDgAurGSEsgDVgSXlXNeH2kuLJYUUkXVabA5+NuGE6524pdNqEi1P0hScKGk8ji3CU+zG2Cw2fBX4S7kzMdsrXNmqy8CzCZyeVG4jC8NyN/D7L43yDPHgYqFXlkQ41pPv+//gLrGNLOa5m5YLS9Mj8nXJIDysJ1RkDzafdSfafuAONJ7WawerymYS7Ab/mi2IyqPHtm/qnoa47LmNB8eSY4ovr6tuv2sQpbeVlMGGrwQSHWMywwdaqndpy0x2wdsM2AxP5c2P4zbaK3T4fNCKWh1GZp+6RxM3dTEPOTv2VTwcv+7G5CaJyx9FkRSykyiIGW6kgxj+eaz1HXew6bQu4/Yj3jeXazK45z3OFDCYOr2gnS8vKj0mQJFyY/F5U1WnHvut3FRe+ZUQH9KcELdJ/oFsk+ccjMn5EW369k3IRnqFCtQayp9cEItjnoiSuz78pbvY/7G7OvSFuz9+VaehcEElamXaLsgtcdHhE6PD4mjLO25f+ITOxsu2XHi2gxvQ/PKMtv7R20zFNpE7g5sMhmTGcTFKSlMHW7ipvJbFquQvJ8Rl+kO27cRF6dEuhF8vUROyoTDAecAeCpQBBYpLg3/W3B3KjjYywiRVdkk+R7jQuCa4+BgLdaLtfbe/8aRavWwI79bBTYt0BL3NKPToauKbE2kE0m2dtfu25Sx5LYOpD0Zi58aqNtcgqi/bchM6cmZhTGP/6EpU7/iG/AeqgJQGyo2+zAei5K4Nf+G+6/tIOymwohAiYU3hYkrmeaHV2RK/MlV3WUg4e1iHfx50dZWMNtqa8jB4KOHNPlWbyvTCuI6UWg86LkJl1ZpKwP/4qrHwG+G1DAbJUY3iH2mv3aMkmE3Qu8PSpK7Zm5ODZoovf6H5ulgIywVCP+ajyE13VRTdhb4/uCsDn+oUlIHpBzoYgCUyfH0yoUMDYhcdU1JOd/7EHWl+03XItcFINiW8LBMG2Y4gD0uulaLT4MyjDfcD4x8mpKXXNixCbCtV2wCbenW4q5E07G44HJPt2XUXo42IpLWvxhnp5Rfk1H/mLwrytrzGmFUfRW6omrsy9KlOMIb48HWR6khkcdgpUG6QGY4GhnEcaDrtTnX80J1s+4HrrNuveT1Td9sDig7rGTlXDOOjswOxz7wMBBjeYW46qLztRJ6b+o4KIT3yFF0SQ1eWVGddiMteAsIYJmQkMjIachPc6SEwbCWoNpTA44kbGsZ+/OC/qN+O1jHCWHJ6qQIhFXkkVFxzdaeGs+/s+gvto6UjINuuh1wDaYr+6fuaex0TwmN010ZguAA7RHbVHYg9s3UUyV10UyXPYKDixw/+H82f0A2RLaEkITf+qB/u/htt+WFstLX65D4IcaYWxl3f9D33ZOKOtzHM9utFQZWPczIdNznN31UyEuqIO9h82vXUH/FKo3Tr+STDi+Cmxu6Lzx//g7sx8rW+n6i6joomlD3a+rY71/mhO9rytqq+7WDTtyjKxNzV9jQcUxtLNt3dUAK0FnHAcHBzMRhyD0FuZ0JeQ9z4LM3+9um/uAtPP3LX1HZyRYkPMzrKL12Ex5i1I61v6WpGwlrUnhFecoC9CIVHHk+HhG5gJ1LPcGWTWufgn50c/00zF8oJZqViQn6PfzSbEraoTpLXQQLbkBug0ICdhJuVmokj190thgAMfuK+7ftICxR0ULCBjLxPuoZLcJMnpdNdf9gdbn7TnZAIYh92FJ3mYXaUnYIb3NJKVF9zPJTMLPStpIlBeoGbTZvO+QzvKJLbdHjr8yt+mzt9i9qkLT8w8Xg2gBCX5mPyLLQAEfNbFS37wHnEKYeFhPMJwiNt4tf7DWgxAtWOFYk8XTA4ku9LBzhn1AdWXifn0vs6zr2jbq+2k3Gj9xGOFSx2Cl5TuqmYTn2h7/c6N08rtgmKUIS2+IVR2mfaWYR+QATY9hehb5r0gBKf3JmvDX+lFbM7YxfdrMjTdJ2Qr0JQWTvcfNadbHtfFycjgw3ZBb/Kb0xP+AneFkbUm0VoAwFqTkdOfiU6OTV9JTY955f3pDbqzZMxUCg73te1CfK5Yp3VZoS3U8AXqLrrQ1+6y4PYjC6pz3YjL2WFXNe8Dud3/UpXZZK/34l1bkukB/iBKS3jdv++/2M3OsdIHhg688SH5KUBmSQnW6YwjpqNIDPwN0g/gp2iAykH8jU6IGJuUEcGQXTkdKajsdV+ckPV7XYbnPypAnPYKkq9966rbp/raTiiFUK8YLoKVS8wO4+SAYhtUc4D5hZe6PvI3Rn9XjnkVeP4SacdbjnnTneIyqs76FjovZMlSlsmPcAJjMojyUy7iE6ZfUU8nk5Q0uYufVxIj4NEItosBekBd29ugDySr6GgNLk44lXdwqgOAUDdofQwF/N5xjpBhii7dENtKCUVehFBeOyvgPA6ava6+lCzWlQsnE0mfBcN5wMq78rQZ25ABBQpjI1ytShsOl3e7PqZ5lbJs3JN7wTbIj3ASG2kKT88vXKv8takE/TiMQfwYPMZ9273rzX5yYo4QzLhExrctTU3Jx8FBQn8kjOLk0JqE2okJlyluEQYOyWqjpxwpkhuDX7qLv2buPo7andrwQJ1x+BP8nmG5IObITc8hgl80ftb1zd5TwXTRoQHairC7nDTWXe++y90RmEyRMy2SY+Tu3fitvuu/yN3d/SS+vZe9cOnC4SzLDTqqN3rznR+oFNr2XxuYW5yoGGrENbq6qoo/mktNszLDY/igw5/YOrNvISvEsJOLo7L8xG9u3tylPNDTjdPmZmDt1+FtXWMFAiDKHmffc9+2KedK8kGKQvydvHTb0hpbJTHC4D6pjh5RqI21Hgy/LfbJj3u7ORndE7ZwGfa9E1HRDaAA1Mld3F6hX+6/9+pt5DqjxHf1sHJih2I9MXK6oqGr5ys5OJQcJzIkFz/1ANV+xAc+Rn2lyxpuOuHdGYaqIOSojJXXlqhxQo2kkF4nXX7tK2JMVCQoZ0jyQc3OVJieC+vSWR4VcLajSYir4GhDhUiXH7izsobu4IZNJCM12fbpAc4ye+OXXaXBz5x98cvayiTLSBfg6+QA3a688ea5yNHY3gVYhospsZQdOTdZiQEWVie0RM1IkpuQm52KHvychQpyNVF5obUWMzfkV3woSx9mkzYpQrYVXdA1N1RTYMwJICQycgudUAgeYX3lbs58o2S36vAa0Euj86q93r+yp1sf18n2vjFPzvHjkiPuzi5Gl96/kS3wica+pcJcOCoupGz+UHPX2oitJZdozvMB+QrOA1Qcag0r9YW9aY2JSEro7vJveDLxCQcdETkAghXfaGiU0KlQzrgk2LFWleRkV0qAUeQ4mDG4ZXBL3SKCjfQVyEQLOwXeXvXL93exhPbGiG1EXZEegFujVxw3/b9Xsdyc/fPJqDuILzzPb/ROzyjaeyu/jIIRVmSg1EYS9Lk4piSHEUqwlhCW0DeNt2Wkp2Aaj79sqfaP9DeWZZcQXQ7TYYbNgcKF7dHvtNmhsei8EiHvA5U1BtDHe4XB/7O7Wt8Q29QpcXJW0yWFNLDTX1r9Fsd73N37FLs2ewASWl8PvsbT2moi4/Pj5jOrrmA6QL5NYoPjGciXF2zkYzrGwUqLATk8Xgkf6cTbGOnSaaLEJsBan6XvM5BRZaiFoZWChVlJcHrbje+VAObEovUITyKnhAgVqZXgeuSHltyeD8T0mut9ntGkilUkkJ6hD5sIael5Nunv5fQiOkX2aMGOJCEN8dbz+vSFi4CiC/f7/bkUghRpxcnHPuBsZQQls4sTbjI3IgSHM9NC9nxCMFhJwkKD1qllfdzgeh4jVFxway1jtp9eoMjb4cFRa0OxSVJvXgMicH5Q6TwYPya9lE/GL+iBMgIuNfRDUNN8OWRxzvV8YGrkRtVsqvpSSE9nXo626/7CL568k+a93mVwzoToPLTXrNXiO8dt7/plGORy1a3KGUrICdvCPaVU97njSIEhMbuCAyhnIh8rMZgvm5lSRXdstx9+Xr+nlwguAAoutKiUldeGpIwtll3JpCvYygGBMgFFAyatFxu6sG5Q5V/Tm6sTMS5OfyNjqEj779RX208uHEx0YaOqje7fq7vp6L4mBTSA6g9DMuMAMLGQotRNl1APjlarRYF+vfYScr7XBS54cuSoymHk5wax5WXLXhEzaHaJuXkouiAnQRz8KwqO5ahT8dU3qwQ4awSHN+bq+D1KnYlammg+tpS3e32ho9pONta06NrS7mAzG+XPnA+cV5hTGf68UXhAKZbQ3g8vxlgJdrXeEJ9eafbP3ClJfIapkCZJ4309BeWC415Zx/d+791RhYXY/aEuTEXvoQ6KAIOLsTHCPxsb1XjhOIOijpjvBJmYMhMiUzeZ1UeFTLfx0pHRERzdYH5c9XFwlSIkkf5k6tAsfkds+26j5nR7by11fZo0SJUWmNhbAZAnhhjOoRHX/7jyE3NEW9mtzCvFdcf1+LJtvd0EDCCJFWvYdJIj78murqgCo9KLtKWwYDZNtATAyrWFS6Y3eGj7kTru9qqxqgaVQcpOtCbBSEmyd7A3EsehB0gEBwLkDi+EBrKmpsM76PevCE41vdK/6u8ny2TrXcKVDpExw1LV5JWNrmu2v2uvXav5u/Iz4ZKqzThnQzHvmHzgNA49xjz/njypnZn3WX6kpyfmyE8gCePVMTRljfdqY4f6Tiv7U5F3gySRnogMLP2TtKe9gctVZND8st6skddQG6QXLNcMAebzij5sbuU0niyK0WJwImgCkyOF1YQ3/GwrITFW1BcIBxVopP3WYnH+3xOG/V5k7srFdZl+f7X5UtyDdz5uRgCnx1VPPKw3KDI1zWFOlx9qEXJMFmmVcPWQPSghDcnhDdxU0dEPYhcU6P6ZsgOkIIIldZqHpYlS6zSxECeymswqaTH5cyBIJFJXo9S9cDUQze3PJN1FyWKgLBWp7II6R0S8tsTPq4qwueDind84PWFJ6SMnQDBxxR+CFWjQlyQ2PM3uTui1iA3ciEUHFByaiVZZPFRdhWHkgs52nIBBH8Y2MndnxsRZMfgSKqxhLLlpaQjLITNJLieF+SmS481RQusak8mbunIsK2AQkWjiA8GtrJwyfdAp3bgQ5JJz4OLG1/OlUG/nk/NrVkYaunlRVJcLiCGjp7r+plOXOZCgxBRENut+kH+QVUVmQ+CsUsLQnYUHaimsuiGvmW8jqi7oIIa5N54eYJHjmy+gtcA47gvLJXERrUfEiV+Wh/jd8oa2WUWnNukXxj+imPj6uDn8n6vip2tihtUO73xdF5gRK6pqE/565sS0gMUMfDpfNH737VsjZLhgs5WkBciP0SujwuNXl0dS1Us4e4riS8gJDkZqKzGSAqiY5MXio3pI+Q4MAHTuwq5aQ4u1vZFqErRYbM5kHyChrFFZZqvw0DMDlnCm+ZQp/bK1lU0an7HhgFkA3wkR9plYOahqrubw9+6Yblpc/5u9fqmBs8UFcbAs+KBkfykl1KNlJEeINbHwnKRMHf6oRysmdhnshNBzx+Vo576w5pnYFLL2n6EtdwRL74WDYS0+L007xbFKkJz/pxbXmEX75SGqN4YPBMLVyf0pMF6UsgI8qrcZBpF1XHDwUjMIyrvuaE47pgbMgcUHDdoznMGB1OdJXdPyyIzErd6s4bweJ1pFjjb+aHrbjgkSp5CVOpdFCklPQ4GEpjFH/Tn0vpEiJftIIHOxqX2mj3a7IxDnF5Alp4vP/OjkmjI10KD5twi8ns+1lCVcVtYR1Bt3PlW9fD6OyTwSrDwCA+1THjKHhN2HgRDADi+5HEoTBDqBCQX5PcMmQfnMjftsfkB90jIjh77IVF35JmJVrYKiK2suFII723tvKCYSC49XUgp6XkpPKNz8GlRexi5qubZXADhVLm8MJpQr2jQQZMkWH1ouuhmRb2h6iC+YDoJJ0dQgTVwNxfSUvKiibxSe6B3SziDiRgFTe7UW00qtUqbzKZyQ3LALRqbFKOhEC5X5DpekGua83076SoUHrlbRkX9eO+/dUdb3nJ1uCZEaKQLKSU9Dhl2FSo8d8YuaqhLWZsDlu1QnRErcnBB1uHyLynTiisnQnSZnNyiEN2yfuyVnLynSi6FhzQHwA2DoZyEL4Sr9MNSJYfkyJ3yiFfSV2EpTNAmpkc89jcYMo1AsPRP3XOPJYyF9BgUS0vjM4pt2zzPUfsQHsNB32h737XV7tbOmnS+9ikmPX+nIFHfP31fDcsQX//0Qw0RcwVclL4lpvj53Y3HoMJa6PDbxKo0PCUXxzQTWooC0iMnyucqy6o1b8qdnhtJOvI3hq2DoiO92uThWb7Oo7Y3RiWc3YFgoUhBiyD90cy4pGhVXVarqY90IuWkByAHEqDM02I+/rXBL/TA5kvHQKEA1YuKowjBGwRWGrOZ1FY0aA6UCmyg5CgKcVJDdiSp+V5D9gEK4FpkYAWuC/LwDPt8NHFDfbba9bPiV3RuF9zgiJawHx1tfVv7a1H9mTCWp4X0AGEulo0Hkata2EAu00dqSil7EW8W5m5MEYLdI7SCUYjgpKXgU13eoAqvrbpbCY8uCfJ0puSyGxqgiiDBEI8IwV5FCEv/bP/UfSU/8tZ85U7A+UMqg9ZBDMinOn6oQyIy1UmTNtLjAJMPw7GNv+frJ/+sOy9zoZpbiEDVUcRBxWEdqSqv1XCVzXKEKFTb2CiGsqsV0oMUUXJq6I7l6AzZCyW7Vb+SkWGyjIYj7aRtZCJOGGjBtRm4DrYLCI/zgkr94eaz6sfDB4tDIlNIG+kBDiAyeXxuyH32+L+5u6MX9QBvp+y9FfhiBGFZ4tlctIXxAu9Evuc6fKjqe115o6paJ8RGbg41h4cOszatYSg+8jMkpSHGjY6rIfvAuY74wH3Acid8dkxEYgYmC58YOBvsJU5GFBYME4Dw8OTR6klhK5NIK+kBiI/q7a2Rb3QEzb2xy5rvC6qfyUIQknGXqSqr0QNPOAYBBiqE3xzPHD2v3kQ88/zuls9FCo5NMH4pOE6EpJCcV3PNouaaY6FrvebmeI5jmO1juAwvwoewvHkzPWQ3OtunxQmIbnSuT/2lXIPJdlVwXpEGwaL0Rvt72mbGkI9M3yTTTnoAUpmXg3916Av3Xd8fNL+3nTaWjcDBVsd/KRdrk2upFpUi8pqL2k9R8RctJ8QqucYF1hrK2/yovPijercjoZuPfjutRMuxIQcXqDSGq2IpYQAnRmHawBoqW43gchr+siZ60TmMEq7SFsmyp97JWzoVhaVP3m+XGicF5w/n05nOD1XpEeISJWQaGSE9AOEMTT92N0a+VuLD4Y3pNxkoL2HHabNuPzvV/kNtKYPwVOXJn/VA7fHiE2o/jNxw14WMIWLufvkEfncIr0ruvvsbT8oJ6efRsUSHMFZJThRg8fOcnOXlchFe3Xkig+wIYe+NX1GPLOqOAuLKMzqGuPRTd/lzbjEq6t3uX6sZnY6mbDinMkZ6AP/e0GyvTmm4PXpBX5Cd9ucyUZdNSgeaTqmsZneCryYiqTc+4NztyGXgRRrEnyR3QsZd903d16RuslRoOkHODTLjBoCFBMtAONTmWmq6tCARKq1WoguODzcFQ26D64clPGNz/bEQ9rEWD2kZo+9b+8I1d53ay56+6mMt7+gwgX1ygyXFlC3nV0ZJjzsSLxLEQj8fVV2Ij57drYLcHQlSpq4yJmpv+ITmpwh1izepWny4u6Jb+8l74Cukk4Q2uu38TOkEJxShe5WEqpxwGITJw/mwvlFzK+TkamOVVxSfql45NjqsycLYnAM3aiIUiIziBIUITMR0TTDsg3OYsW7z8nmfo2bcWWrVHekQ7Er00zL6/WDzGb0OeT5RlJUJZJT0AAqKPQ8Px69JqPuNSnByDVtRVkEi/ljL2+oDYiwUBLhdMywnCFOJaZ97GLnuvuj9rc4LQ5lmCziJyMeRl0OtaRN/WZ0LV/mWL23/4k2OA4qPr1VDsbyVSgi7mZuAIbuAy8GvBMBp4LfdkYJhLiOFOAzFEN2kPMeNm8jFD75IT/cTN17aD9lidr77V6rwiCywPWUTMk56AIU1vTDm7o9f1eLGjeGv9UUL8hKvAxc9I4re7fmNO9LylmsKtW+b8AIExMedk92dF/o+UkWayrvkq+BVWexR3iA7QtTO2r16kgWtXsyfC0iwsqxKTzhfjDCSyx1wRfDAoz/feCTnzI0YRUexjUG0hK7qfpAIhWKcD1/9hJ/0okgLYm01e9xZCWmPtLyphPf6eZTpR1aQHuDuBcE8jFxz14e+1FB3s9vUIDxG1DBjn+Q8FotkSGlOHIhvaLrX/enhf3U3RYkS5qb7hAoq0ZBaoyi5GnkkR4dJmOZthm0SvlIZQ9ERsGo4IW+bDe0NmQfnFfk2rgXSPuThmNHIPEbWeGIknpGPmdMI6bEQiq+D6ACV2mCQbbpvzqRUKFZQpWU+XlhuyNx8szFtkjWkx52MrV8kYOn5g/hoh+HFfRXJkMc60PiGe3/P37ie+iNqxYAkkgX+be6kXz35Zx1/78v8VJlTd9j4+VFyhAq8qYdOFBwhK28QHV0Q9LRyYvFGCGurD7MdcpbL5aZFMyE2bqCsDgAQnZ+gPaskBrnRKcGbX+spJCc34CC85TFYKJXum3A8qPITTUB4B5pO66go0kucj9maJ84a0gO8eLzgvkf3mrs6+Jl7MnlX73SJFB8XONXJE23vug/2/lv14/mZbMm78CFjTk42u10a+LOqPe6uQdixU3g1xsj0Es2J+GKEX3NIJZr8HL+jVmFF2WEWxnICKWaqd9HwIpTInJ+6A9hw5xWXNwQr5GuCzh+e4xzye4oj+mndXRydVPMwG+50n/GSX9bONcHbZtM96QLnLmOhWqq63IHm06LyzinhUTDLZmQV6QHIhOTr5MK4blRjKgvNz9wF1xMNrVMYaQltz3f/RaxKlGwieKY9ivQmXhTS++zx3+tdeKeHjRMG0g6KEdhHghl0hLAM3GTtIXkRiI4cHYT+un83aWS8jRvH1vpt4/6FLX1fkqGHyx+z+P/HY6NjHhxrSIyiAYTGc0Qsuu1OTcE07PvQMypKjaGzUd1lPCvnkV/MDig+QIK+5zUXTPFFSng4BI60nJO3t9UPy8fZjqwjPeCJb1nD2xtDX7lrQnyElYQE8Xc7JDTjxk+1/0hXyKGGfNI+uUCBEk5cHvzE/dOd/1NtADu560LMEB3jlpjKjJqD6JpCnWoUpurK5/l3eXmUHuAF+Tej8nOgIhKBr11N0riuYrmhbIXE+BnLn3v9Xv99kH5QbCotKkvBzWpz0BAxdsy42a6/HMixeSPvi8ec1z8IK4MJ2gyV9V5PT2CsEWDrP2c0N23UG1ED5zf/jreQ+L+Xx50M50w3eO3ClW1uf9NJvf4YGRU/7j+bkZWkB3jhuRsy+QHjMsNHqVwh84OTDdI43nbene74sTvUfEbHuacij6CnoRymywOfuH+49b8J6Q2+dBFsFpwU/JwddXt1h2uzhOQkfRnXhOrzX1Mk/55TJUCOhxwii4Ygfd2/kYDYIGWODVVv/eZtgp+POzjjokrU2rI5UDxhph75xc2c+Fw0dM6Qg0XhZmpUPMeNY0Z4magly4ebc0p8AQhfIS9eH4Ay4zXhe4MbpM+7LeprB7Ih/5YsICxQdFhSTnd8oCsciUaSmUtPJbKW9AKQ18CwTC6NqSzsiMWTxGXGxflm18/dua4PtfsCdbSdsGyzIKf39zf/122THicLXRGMYyLvQd6OqhcnS6Acgp0b/P1cjAHhcWEFuaBEFw6fI9G9Uy8hPyPkS/FkK6qZmw0hOkNFN/N9EGPw7/A6boYoUwGIiOMWHHfUVzwgPE+Ga8dcJ5XIa0IoWmjgteUmRdHiZPt7Wq3lnM7U67cdZD3pAe6YuMy1kDD8teubfiBEEFWSO9/9GyG9n2pjsx8mkL2khzG4vWa3VmDZhcvvwMUGsaPoDIZsBdcV7gAqtYx5f7PrZ1qpJTWTiugqlciJnxb1gAGX9jLuMPjyCDm541JUYEMZd2l5KqtBzoheSLbCD049kvef6KYplITBkM1AyVWVei8eW8yYjUcOPdcID+TET6x3GTnobaKS6OVDUpMPIyxEKZFITmUTNaEnYRAku1Pw97BcxW9S87mgnRRFDIZUg/wrU4r2NZ10P9zzN1q0wAyPeyIXkTM0DfExqYHlM4EJklARosMWoJU3/6VJB6EsBtFgifdO/h0Uqk94+yGlwR+DIdvANYdDgqEVjCJjasr+xje0Sovg2JpFKXuQU9oUtUeFcFfdQZ21T7jLBBFN4i/P62OyU5QQ0rKoseHZJ254plc9VjupjhoMuQDCVnLkdP8w4v1oy9s6ro3WR1+lzU3CAzkXkFPxo1zOCwHx0XqGcRclRjUt3lqQFAjBEY4+jtzQabNLywumywx5jUDh4S7YGz7mjjS/qfYUFF8u5vDWIyd/A8rm2BwIb5m7T+cCvinMn6r2kkRLhKA469n9yYgp7DL8/eg/gyFfURlLI9FWdqz1vAiMY0qA+UB4IGd/C16A8tKQzotjUxd+L8brqK9N/VY7IyYIjyIJHsE7Y9+7kdk+tc5Y/s2Qj0Dd0cuNB49JRYdbzrnjEklBeAy7yBXj8WaQEz691wHLB+54SKm0uEJeuJASoiZb5c9W4QlvRr2BD8avqj9vcOaRPmcw5BuU8ORawVzeVN2hMynZTQv5rZnUczeHtx55QXoAxzzN21FReRQ8MC5X6gDNEvkteVk386J5HQe54aFjtt/tkQtKfLj2DYZ8BOKADiG8sDgj8OCROqKlMB+RN6QHNAe3TNuQn3fHi1laUqF+ohK5W70qJwHdQZyrq6vu3vhlIbtv5fGS6596FLOpWFhryD8gCigM9jQcccdbzyvh0Ruez7MZ84r0gDZ+r65ocz6KjRHv3LHYzs8uV5ro419MjMF8LVNpR2b6NIxlExqbpJjrRxO/wZCP4Dpg4AVLfCha7AkfVQLU6CiPkXekB1BlqDM6NRhCyqBGxvZgd2HVIdNZAIoQUqPwQU6QKS548SILw/K9zDWL6tcZDPkEIh5WC1AAxHvHG95X1g7kq7qLR16SHuDXwlQ8F53U/bVsWRsQFcdYoLKSMg2F50QJ0mXB+xIcy+doEVvUjwl1LaQ15BtQcRQnGL5LKIvBv6mqU4sYO12mlSvIW9ILAHmx44L1eGxZY5ctH7MndPnZkk46MXIzFAqYXxh0WNBS1lzVoemffPHgbQZ5T3oEuwwjIHwdnPb5ul7N2T3SqbaJBnIaDPkEb+YPubCEr5j594VPuF31B+TjdjX553sObz0KgPQ8CF2ZW8e2td7J2+5x5KZ7OnXPjc8PPg9pDYZ8AtOs6Z9lQEBrdZfrEqLb33jatUtoi0WlvFQUXgHk8NajYEgPEMZGlxeU6PqnHmgvLR48Chd0X5g1xZAPgMhQb3hVcSx01u3TzgpGQjGLcqtTsfMNBUV6AVB97D6gUntn7KIWOmg38/snmNTCVxn5GXIPEB4FCYZwsJoR/93exuM6mIP8XSHl7jZCQZIeak79eStRDXlZPHRv7LLrn36gy5VZSEQecP2+BIMh24G6Y2dFW023291wzO1rPOFaJZzFcJxP/bM7QUGSXjyo7k4sjGjbGRVeWs9YN4m3jwpvMqYlGwypRKDuykoqdaI4JuO94eM62r2+otlVllXl7JTjVKDgSS8AJmX22WJmfjxxQwjwng4cYPMaxGgwZCPIzVGsqBIlx7Lt3UJ4PDIsgLWMhZy72whGenHgUDAv7+nkHc313R+/ojYXiA9Pnx0qQzYhMBrTSYHZ+O1dv9RNZTVl9QVjNN4OjPRegie+yYUxHRpKdfeqLhofsK1lhqxCMEE8GBTASDVaLQvNd7dVGOklxDO3JMQ3F512kQUf8pLv440VjsEUF4Mh3aBvvKYiLOHrbiW8XXUHVOXRSsainkL03W0VRnobgAovuTwqvFhZRmafuqdTd11v5JYbmvX2FvKAlu8zpBoQGXk7Jhg3VrW7tuoe19NwWENZlm1XllXrTgvD5mCktwkQ7lLJpWeXrWjk+ih0YHJm/eQiy4Ke+ZWOBkMyoJqtqFhtJoHJuKf+kNtVf1CrsnjuKktrhAwtnN0qjPS2AFQd6o5WNnp3mdXXJ+oPAjTVZ0gmIDLGP5G36xCSo2eWZT1NQnZ1lY2m7HYAI70t4Lmpmfl7ixOq9AanH7t+IT9C3tHZfvX30fFhMGwH+OlCZTVKbJiKu2r3uy4JY9tqduuEFCai8DW5umg7G2Ckt00Q8jKannY2Kr0QH4MMKHSQ76PTg3ygqT/DZgCZsYmsprze1YdaXIeoOnpm22t3u3BlmxKhkV1yYKS3Q6D+UHbj80Pq6Rucfqiqb2i6V3OAC7qLd1nJz/J+hgBrObtSxyYyChIMA2A5DyFsW3W3Fi1qysM6/smQPBjpJRGQH0TXN3XP9U7cUp8fZMiWNhaR4/Njf4cRX+ECshO2E9VW4ipKQq6mosHVVTRrCLs7fETHtjeG2rWAYaouNTDSSypE9YmaYxozJEell7CXMVaDMw/d1MK4jqhX8rOwt+BASxjmYUJZOilQcox7YjEPi6sYCoA1hW4KJUdDSmCklyIwlJTQltweRQ+GGjDFpXfithuQR5YWoQw17DXll9dgmCdERjU2HGr1tpOaPRrONgnxUaFF9bGpj682pBZGemkAubzo6qIbme17rvyo/EbmhyUcHlMCtBa3/EKQs8NHx6QTyA5lxxQUChRsIsNsjAfPkF4Y6aURFDSYzjy/PKPrJp9M3tEWN3btMuGFai9VYfZ2QJSG3AP+umDNKNXYusomt7vhiHZQMPmEggUhLqquWP7YUM/0w0gvzSCUJfRlL0d0xXd5jM0N6HJxzM5McGZhEaGxIbcA4eGlg9zaa3a7ttrdWpiorWjQ7glyeRCi5esyCyO9jADiE/qj6LHqix7TQn4RITtPgv06yJTdHWueP4YcGLIJkBd9r/Wi5sKhNv8mSo4tY4x7qq9o0nwd+TwI0Ss7I7xMw0gvw/DKb8UtryxpXg9yI883PPtUh5gyvh7zMyssF5ZmhCDn9JGuEEP6AMFBXGwQwygcEuUWjGanD7aluss10iJWEVZVVyFfxyRjaxfLPhjpZSEgv7nolJuOTupAA9Qe5IfyG58bcuPzA25mcVKXGK2srmgOEP/fqvyxXGByAMmh0PStyD9WlNAL26RjnKi61lY0ajGC51iziA2FENZPKzZFl60w0styBJVfQtwpUXxjc4OiAPu08AEZzggxYonh86oU5WtFPPIf363/N2wGcZk2eadYiA5CIx+Hf66qvE5Jjg1jdExQjfXV1yolRMvT5Q6M9HIAEB8LilB0VHcJhWeXJt3Y7ICGwITD5ALJC2J+nif8XYkqATISi+8xL2Bi0Pngw9AKCVur5P0KVWvVotqaJGRVJae5uRbXEGrWiiwhK9+nZCeqzggvt2Ckl6OAyCA3r/DmdbQVfj/Iz6vACd3tMbk4qovMKZhghvbb3SigePsMleR8BoSkxFRUpERFXs6bhUskbC2TkLRGJxEHqo5H8nSoOj4HAZK7Q9HxRuhqJJfbMNLLE6gNRogNoiMMRgkGJEh+UBXgMiqQHuB5fW5WCJNJMYEKRFFyOjz/mMfY6ZGdSlEp7XlFVP8fVx1VchOS84M4qyRErdUiA50RobJqDVvZGAbZeZKrdbXlDUqCvG/ITxjp5TkgKzx/5P2oAlMMgRRpi2MYAgUSFCCLzQmbqR5DnkFITWUZQkUVZhvxodooMpSWeAUXFBwgQu1zLfF9roSkDZXNMRtJs9pIGkOtai3BcgIxGgoHRnoFAAhM/1DhDUhMH5dF9S0+nwLDQATa43ijQEI+0IfN0/I2oTnCbAqHy0tCotB8aBpUUFFukFx1Wb0WG3geZac+Od40rI29r2/WEVFoMNIrcEBihLuovUV5nF+a05AXdUjhhOdRfjxHcYSvXRQyDMzSVJb5mMoxXx+EwwH4XoiT74sHoSekQ74MNbZebRXJx2USlpbL5yuF3ALCouhAkYGPaefy30/xoUJDWIiQ+XQUGyA7Pk94azAEMNIzqBLUR/7I6cAJgQp8Hs7Kc0GoyxIkSGwZa4wAsuNjiA+C5G+JB+SIioQ040FxAXKCmBKRXrGEqRAXnyP/Figzqqs1ZXX6eSXO4jWlRscDXxOAXJ9VVw3rYaRn2BIgPl8B9tCK8CpDEjaYDyiESqV4GRUYB4gIoqOKCnnFFyAAYWdAYCi6tWKFNw0bkRm2CyM9ww6xifKGfsH6r4qR1ia4ywjOkEwY6RkMhoKCla4MBkNBwUjPYDAUFIz0DAZDQcFIz2AwFBSM9AwGQ0HBSM9gMBQUjPQMBkMBwbn/HzyzlOR+xh20AAAAAElFTkSuQmCC;" vertex="1" parent="1">
          <mxGeometry x="567.25" y="498.29" width="60.75" height="61.71" as="geometry" />
        </mxCell>
      </root>
    </mxGraphModel>
  </diagram>
</mxfile>
